<mxfile modified="2021-03-06T03:11:58.489Z" host="app.diagrams.net" agent="5.0 (Macintosh; Intel Mac OS X 10_15_7) AppleWebKit/537.36 (KHTML, like Gecko) Chrome/88.0.4324.192 Safari/537.36" etag="cT1-uP_0q7QJnL-Adif7" version="14.4.3" type="github">
  <diagram id="Ht1M8jgEwFfnCIfOTk4-" name="Page-1">
    <mxGraphModel dx="1351" dy="693" grid="1" gridSize="10" guides="1" tooltips="1" connect="1" arrows="1" fold="1" page="1" pageScale="1" pageWidth="1169" pageHeight="827" math="0" shadow="0">
      <root>
        <mxCell id="0" />
        <mxCell id="1" parent="0" />
        <mxCell id="AoLgpuZGE-U0Y9UZInxb-1" value="" style="shape=image;html=1;verticalAlign=top;verticalLabelPosition=bottom;labelBackgroundColor=#ffffff;imageAspect=0;aspect=fixed;image=https://cdn2.iconfinder.com/data/icons/free-simple-line-mix/48/40-Web_Development-128.png" vertex="1" parent="1">
          <mxGeometry x="40" y="40" width="70" height="70" as="geometry" />
        </mxCell>
        <mxCell id="AoLgpuZGE-U0Y9UZInxb-5" value="" style="edgeStyle=none;rounded=0;orthogonalLoop=1;jettySize=auto;html=1;" edge="1" parent="1" source="AoLgpuZGE-U0Y9UZInxb-2" target="AoLgpuZGE-U0Y9UZInxb-4">
          <mxGeometry relative="1" as="geometry" />
        </mxCell>
        <mxCell id="AoLgpuZGE-U0Y9UZInxb-2" value="Development" style="text;html=1;resizable=0;autosize=1;align=center;verticalAlign=middle;points=[];fillColor=none;strokeColor=none;rounded=0;" vertex="1" parent="1">
          <mxGeometry x="30" y="120" width="90" height="20" as="geometry" />
        </mxCell>
        <mxCell id="AoLgpuZGE-U0Y9UZInxb-9" style="edgeStyle=none;rounded=0;orthogonalLoop=1;jettySize=auto;html=1;exitX=0.5;exitY=1;exitDx=0;exitDy=0;" edge="1" parent="1" source="AoLgpuZGE-U0Y9UZInxb-4">
          <mxGeometry relative="1" as="geometry">
            <mxPoint x="74.71428571428578" y="360" as="targetPoint" />
          </mxGeometry>
        </mxCell>
        <mxCell id="AoLgpuZGE-U0Y9UZInxb-4" value="" style="shape=image;html=1;verticalAlign=top;verticalLabelPosition=bottom;labelBackgroundColor=#ffffff;imageAspect=0;aspect=fixed;image=https://cdn4.iconfinder.com/data/icons/social-media-logos-6/512/71-github-128.png" vertex="1" parent="1">
          <mxGeometry x="35" y="210" width="80" height="80" as="geometry" />
        </mxCell>
        <mxCell id="AoLgpuZGE-U0Y9UZInxb-6" value="push" style="text;html=1;resizable=0;autosize=1;align=center;verticalAlign=middle;points=[];fillColor=none;strokeColor=none;rounded=0;" vertex="1" parent="1">
          <mxGeometry x="80" y="160" width="40" height="20" as="geometry" />
        </mxCell>
        <mxCell id="AoLgpuZGE-U0Y9UZInxb-7" value="" style="shape=image;verticalLabelPosition=bottom;labelBackgroundColor=#ffffff;verticalAlign=top;aspect=fixed;imageAspect=0;image=data:image/svg+xml,PHN2ZyB4bWxucz0iaHR0cDovL3d3dy53My5vcmcvMjAwMC9zdmciIHdpZHRoPSIyNTUuMjMxMDE4MDY2NDA2MjUiIGhlaWdodD0iMjY4LjI1IiB2aWV3Qm94PSIwLjI2MTk5NzUyMDkyMzYxNDUgMC42ODYwMDExODE2MDI0NzggMjU1LjIzMTAxODA2NjQwNjI1IDI2OC4yNSIgcHJlc2VydmVBc3BlY3RSYXRpbz0ieE1pbllNaW4gbWVldCI+PHBhdGggZD0iTTIxOS4zNjggNzQuNTY2YTEwNC43NTkgMTA0Ljc1OSAwIDAgMC0yNS42LTI1LjQxOGwtOC41MzYgMTIuMjAzYTg5IDg5IDAgMCAwLTEzLjQzLTcuNzJsLTYuMjk3IDEzLjUxNWE3My45NzggNzMuOTc4IDAgMCAxIDExLjE4NSA2LjQxNyA3NC44NTMgNzQuODUzIDAgMCAxIDkuOTI4IDguMjVsLTEwLjUyIDEwLjUzMS0xMC41MjkgMTAuNTMyYTQ0LjM2IDQ0LjM2IDAgMCAxIDUuMDI5IDUuODc2IDQ0LjM5NyA0NC4zOTcgMCAwIDEgMy45NjUgNi42NThsMjYuOTczLTEyLjU5IDEzLjQ5NC02LjI5NyAxMy40ODctNi4yOTdhMTA0LjE1NiAxMDQuMTU2IDAgMCAwLTkuMTQ5LTE1LjY2em0yNC4zODQtMTcuMDg0YTEzNC44NjYgMTM0Ljg2NiAwIDAgMC0xNS4wNDMtMTcuODAyIDEzNC41MzggMTM0LjUzOCAwIDAgMC0zOC4wMzYtMjYuNTU1IDEzMy4yOTMgMTMzLjI5MyAwIDAgMC0yMS44NzUtNy45MzIgMTMzLjMxNSAxMzMuMzE1IDAgMCAwLTIyLjkxMy0zLjk5OWwtMS4yOTUgMTQuODM5YzYuOTc0LjU5OCAxMy43NzcgMS44IDIwLjM1NCAzLjU0OGwtMy44NSAxNC4zOTNhMTAzLjU2OCAxMDMuNTY4IDAgMCAxIDE2Ljk5MyA2LjE1NiAxMDMuNzI0IDEwMy43MjQgMCAwIDEgMTUuNjgxIDkuMDE4IDEwNC44MzcgMTA0LjgzNyAwIDAgMSAyNS42IDI1LjQxOCAxMDQuMTU2IDEwNC4xNTYgMCAwIDEgOS4xNDkgMTUuNjZsMTMuNDg1LTYuMjk2IDEzLjQ5MS02LjI5NmExMzQuMjE0IDEzNC4yMTQgMCAwIDAtMTEuNzQxLTIwLjE1MnpNMTc4LjA4NyA0MC4xM2ExMDMuNTY4IDEwMy41NjggMCAwIDAtMTYuOTkzLTYuMTU2IDEwMy42MSAxMDMuNjEgMCAwIDAtMTcuODAzLTMuMTA0Yy0yLjk4LS4yNTctNS45ODgtLjM5NS05LjAzMy0uMzk1YTEwNSAxMDUgMCAwIDAtOS4wMzYuMzk1IDEwMy42MiAxMDMuNjIgMCAwIDAtMTcuNzk5IDMuMTA0bDMuODUgMTQuMzlhODguMzM4IDg4LjMzOCAwIDAgMC0xNC41NTggNS4yNjdsNi4yOTMgMTMuNTE3YTc0LjMzIDc0LjMzIDAgMCAxIDEyLjExOC00LjM5IDc0LjY2NyA3NC42NjcgMCAwIDEgMTIuNjk0LTIuMTk3IDc0LjIyIDc0LjIyIDAgMCAxIDYuNDM4LS4yOTZjMi4xNyAwIDQuMzEzLjExMSA2LjQ0LjI5NmE3NC41OSA3NC41OSAwIDAgMSAxMi42ODggMi4xOTcgNzMuNzkgNzMuNzkgMCAwIDEgMTIuMTIgNC4zODhsNi4yOTctMTMuNTE1YTg5IDg5IDAgMCAxIDEzLjQzIDcuNzJsOC41MzUtMTIuMjAzYTEwMy43MjQgMTAzLjcyNCAwIDAgMC0xNS42ODEtOS4wMTh6TTE0NC41OSAxNi4wMzNsMS4yOTUtMTQuODM5Yy0zLjgzMy0uMzMtNy43MDktLjUwOC0xMS42MjctLjUwOC0zLjkxNyAwLTcuNzkyLjE3OC0xMS42MjUuNTA4YTEzMy40MTUgMTMzLjQxNSAwIDAgMC0yMi45MTcgNCAxMzIuNjg3IDEzMi42ODcgMCAwIDAtMjEuODcyIDcuOTM2IDEzMy42NDQgMTMzLjY0NCAwIDAgMC0yMC4xNjkgMTEuNjE4QTEzNC42NTQgMTM0LjY1NCAwIDAgMCAzOS44MDQgMzkuNjhsMTAuNTIzIDEwLjUzMkExMTkuNjMgMTE5LjYzIDAgMCAxIDY2LjIxIDM2Ljk0OGw4LjUzNiAxMi4yMDRhMTAzLjY5OCAxMDMuNjk4IDAgMCAxIDMyLjY3Ny0xNS4xNzggMTAzLjYyIDEwMy42MiAwIDAgMSAxNy44LTMuMTA0IDEwNSAxMDUgMCAwIDEgOS4wMzUtLjM5NWMzLjA0NSAwIDYuMDUzLjEzOCA5LjAzMy4zOTUgNi4xLjUyNiAxMi4wNSAxLjU3IDE3LjgwMyAzLjEwNGwzLjg1LTE0LjM5M2ExMTguNjYzIDExOC42NjMgMCAwIDAtMjAuMzU0LTMuNTQ4em0tMzMuMzE3IDMyLjMzbC0zLjg1LTE0LjM4OWExMDMuNjk4IDEwMy42OTggMCAwIDAtMzIuNjc4IDE1LjE3OCAxMDQuNjk5IDEwNC42OTkgMCAwIDAtMTMuODk4IDExLjU5MSAxMDUuMzY4IDEwNS4zNjggMCAwIDAtMTEuNzAzIDEzLjgyOGwxMi4xOTIgOC41NDFhODkuMDA4IDg5LjAwOCAwIDAgMC03Ljg0OSAxMy40MWwxMy40OTUgNi4yOThhNzQuNDY5IDc0LjQ2OSAwIDAgMSA2LjU1OC0xMS4xNTMgNzUuMjUgNzUuMjUgMCAwIDEgOC4zNTUtOS44NTUgNzQuOTU4IDc0Ljk1OCAwIDAgMSA5LjkyNS04LjI1IDc0LjI0MyA3NC4yNDMgMCAwIDEgMTEuMTg4LTYuNDE0TDk2LjcxNSA1My42M2E4OC4zMzggODguMzM4IDAgMCAxIDE0LjU1OC01LjI2N3pNNjYuMjEgMzYuOTQ5YTExOS42MyAxMTkuNjMgMCAwIDAtMTUuODgzIDEzLjI2NEwzOS44MDQgMzkuNjhhMTM0LjgwNSAxMzQuODA1IDAgMCAwLTE1LjAzOCAxNy44MDVBMTMzLjY3MyAxMzMuNjczIDAgMCAwIDQuOTUzIDk5LjU0MmExMzQuMTU4IDEzNC4xNTggMCAwIDAtNC4xMyAyMi45OTVsMTQuODI1IDEuM2ExMTguNTcyIDExOC41NzIgMCAwIDEgMy42ODItMjAuNDRsMTQuMzczIDMuODU3YTEwMy4yOTcgMTAzLjI5NyAwIDAgMSA2LjI5OC0xNy4wMjggMTAzLjkzOCAxMDMuOTM4IDAgMCAxIDkuMTQzLTE1LjY1NWMzLjUwMy00Ljk0NiA3LjQyLTkuNTcgMTEuNzAzLTEzLjgyOGExMDQuNjk5IDEwNC42OTkgMCAwIDEgMTMuODk5LTExLjU5TDY2LjIxIDM2Ljk0N3pNMzkuNTQ2IDE3OC40M2ExMDMuODYyIDEwMy44NjIgMCAwIDEtNi4xMzgtMTcuMTU4IDEwMy42NjcgMTAzLjY2NyAwIDAgMS0zLjA0LTE3Ljk1IDEwNS4yNTYgMTA1LjI1NiAwIDAgMS0uMzQ3LTguNTFjMC0zLjI2NC4xNTktNi40OTQuNDU1LTkuNjc4YTEwMy43NjYgMTAzLjc2NiAwIDAgMSAzLjIyNy0xNy44OGwtMTQuMzczLTMuODU3YTExOC41NzIgMTE4LjU3MiAwIDAgMC0zLjY4MiAyMC40NGwtMTQuODI0LTEuM2ExMzYuODI3IDEzNi44MjcgMCAwIDAtLjU2MiAxMi4yNzVjMCAzLjc0LjE2IDcuNDQzLjQ1NSAxMS4xMDMuNjUyIDcuOTA0IDEuOTggMTUuNjEgMy45MzUgMjMuMDY4IDIuMDA3IDcuNjM0IDQuNjY5IDE1LjAwMSA3LjkxOCAyMi4wMzhhMTMzLjkyMiAxMzMuOTIyIDAgMCAwIDExLjY0NyAyMC4zMjhsMTIuMTkyLTguNTQ1YTExOC45NDMgMTE4Ljk0MyAwIDAgMS0xMC4zNDgtMTguMDhsMTMuNDg1LTYuMjk0em0yMC40OS0zNy43MDlhNzQuOTExIDc0LjkxMSAwIDAgMS0uMjUyLTUuOTA5YzAtMi4zOS4xMjQtNC43NTEuMzM5LTcuMDgxYTc0LjI4NSA3NC4yODUgMCAwIDEgMi4zNDktMTIuNzY0IDczLjk1NiA3My45NTYgMCAwIDEgNC41MS0xMi4xNDdsLTEzLjQ5NS02LjI5N2E4OS4wMDggODkuMDA4IDAgMCAxIDcuODUtMTMuNDFMNDkuMTQzIDc0LjU3YTEwMy45MzggMTAzLjkzOCAwIDAgMC05LjE0MyAxNS42NTUgMTAzLjI5NyAxMDMuMjk3IDAgMCAwLTYuMjk4IDE3LjAyOCAxMDMuNzY2IDEwMy43NjYgMCAwIDAtMy4yMjcgMTcuODggMTA0LjU4OCAxMDQuNTg4IDAgMCAwLS40NTUgOS42NzhjMCAyLjg2NS4xMiA1LjcwMi4zNDcgOC41MWExMDMuNjY3IDEwMy42NjcgMCAwIDAgMy4wNCAxNy45NWwxNC4zNzctMy44NTdhODguNDk1IDg4LjQ5NSAwIDAgMCA1LjI0OCAxNC43MTVsMTMuNTAzLTYuMjk5YTc0LjE1NSA3NC4xNTUgMCAwIDEtNC4zNzItMTIuMjc0IDc0LjA1NSA3NC4wNTUgMCAwIDEtMi4xMjctMTIuODM2em0yOS45MzYgODguNTU4YTEwMy44NDggMTAzLjg0OCAwIDAgMS0xNS43OC05LjE5MUExMDQuOTQ1IDEwNC45NDUgMCAwIDEgNjAuMjYgMjA4LjI5YTEwNC44NjggMTA0Ljg2OCAwIDAgMS0xMS42Ni0xNC4wMjkgMTA0LjI4NSAxMDQuMjg1IDAgMCAxLTkuMDU0LTE1LjgzMWwtMTMuNDg1IDYuMjk0YTExOC45NDMgMTE4Ljk0MyAwIDAgMCAxMC4zNDggMTguMDhsLTEyLjE5MiA4LjU0NWExMzQuNzE1IDEzNC43MTUgMCAwIDAgMzIuOTA1IDMzLjE0IDEzNC4xODcgMTM0LjE4NyAwIDAgMCAyMC4yNjggMTEuNzk1bDYuMjk0LTEzLjVjNi4yNSAyLjk0IDEyLjggNS4zNTIgMTkuNTkgNy4xNzdsMy44NS0xNC4zOTJhMTAzLjE0NiAxMDMuMTQ2IDAgMCAxLTE3LjE1Mi02LjI5em0xMi41ODEtMjcuMDA3YTc0LjMxMyA3NC4zMTMgMCAwIDEtMTEuMjc4LTYuNjA0IDc0LjY3IDc0LjY3IDAgMCAxLTkuOTY3LTguNDQ2IDc0LjkzMiA3NC45MzIgMCAwIDEtMTQuNzcyLTIxLjM5bC0xMy41MDMgNi4yOThhODguNDk1IDg4LjQ5NSAwIDAgMS01LjI0OC0xNC43MTVsLTE0LjM3NyAzLjg1N2ExMDMuODYyIDEwMy44NjIgMCAwIDAgNi4xMzggMTcuMTU4QTEwNC4yODUgMTA0LjI4NSAwIDAgMCA0OC42IDE5NC4yNmExMDQuODY4IDEwNC44NjggMCAwIDAgMTEuNjYgMTQuMDI5IDEwNC45NDUgMTA0Ljk0NSAwIDAgMCAxMy45MzIgMTEuNzk4bDguNTMxLTEyLjIwMWE4OC43OTcgODguNzk3IDAgMCAwIDEzLjUzNyA3Ljg5IDg4LjUyNCA4OC41MjQgMCAwIDAgMTQuNzIgNS40MDNsMy44NTYtMTQuNGE3My44OTkgNzMuODk5IDAgMCAxLTEyLjI4My00LjUwOHptMTAwLjMwNyAzMC4wMTlhMTE5LjQyMyAxMTkuNDIzIDAgMCAxLTE4LjAyNiAxMC40OTQgMTE4LjM3NyAxMTguMzc3IDAgMCAxLTE5LjU5NCA3LjE3NmwtMy44NTUtMTQuMzkyYTEwMy45NjkgMTAzLjk2OSAwIDAgMS0xNy45OTEgMy4xNzNjLTMuMDEzLjI2NS02LjA1OC40MDQtOS4xMzYuNDA0LTMuMDgxIDAtNi4xMy0uMTQtOS4xMzktLjQwNGExMDQuMDk0IDEwNC4wOTQgMCAwIDEtMTcuOTk2LTMuMTczbC0zLjg1IDE0LjM5MmExMTguMDM3IDExOC4wMzcgMCAwIDEtMTkuNTktNy4xNzZsLTYuMjkzIDEzLjVhMTMzLjA5NSAxMzMuMDk1IDAgMCAwIDIyLjAzNCA4LjA2NiAxMzMuNzUxIDEzMy43NTEgMCAwIDAgMjMuMTA2IDQuMDY3YzMuODY3LjMzNyA3Ljc3Ni41MTggMTEuNzI4LjUxOCAzLjk1MyAwIDcuODYzLS4xODEgMTEuNzMtLjUxOGExMzMuODI2IDEzMy44MjYgMCAwIDAgMjMuMTA2LTQuMDY3IDEzMy42OTMgMTMzLjY5MyAwIDAgMCA0Mi4zMDItMTkuODYxbC04LjUzNi0xMi4xOTl6bTI5LjI0OS0yOS40ODdsLTEyLjE5Mi04LjU0M2ExMDQuNzk3IDEwNC43OTcgMCAwIDEtMTEuNjYgMTQuMDI5IDEwNC45NjMgMTA0Ljk2MyAwIDAgMS0xMy45MzIgMTEuNzk4IDEwMy43NTQgMTAzLjc1NCAwIDAgMS0xNS43ODMgOS4xOTEgMTAyLjk0MyAxMDIuOTQzIDAgMCAxLTE3LjE1NyA2LjI5bDMuODU1IDE0LjM5MmExMTguMzc3IDExOC4zNzcgMCAwIDAgMTkuNTk0LTcuMTc2IDExOS40MjMgMTE5LjQyMyAwIDAgMCAxOC4wMjYtMTAuNDk0bDguNTM2IDEyLjE5OWExMzQuNTg3IDEzNC41ODcgMCAwIDAgMzIuOS0zMy4xNGwtMTIuMTg3LTguNTQ2em0tMjQuMzc5LTE3LjA4NmwtMTIuMTk2LTguNTVhNzQuNjk2IDc0LjY5NiAwIDAgMS04LjMyNCAxMC4wNTQgNzUuMzI2IDc1LjMyNiAwIDAgMS05Ljk2OCA4LjQ0Nmw4LjU0MyAxMi4yMTlhODkuMDgyIDg5LjA4MiAwIDAgMS0xMy41MzIgNy44OTNsNi4yODkgMTMuNDk5YTEwMy43NTQgMTAzLjc1NCAwIDAgMCAxNS43ODMtOS4xOTEgMTA0Ljk2MyAxMDQuOTYzIDAgMCAwIDEzLjkzMS0xMS43OTggMTA0Ljc5NyAxMDQuNzk3IDAgMCAwIDExLjY2MS0xNC4wMjlsLTEyLjE4Ny04LjU0M3ptLTIxLjk0NSAyMi4xNjlsLTguNTQzLTEyLjIxOWE3NC4wMzkgNzQuMDM5IDAgMCAxLTExLjI4NyA2LjYwNCA3My45NjYgNzMuOTY2IDAgMCAxLTI1LjE1NSA2Ljc4MWMtMi4xNi4xOS00LjMzOC4zMDQtNi41NDIuMzA0LTIuMjAzIDAtNC4zODUtLjExNS02LjU0LS4zMDRhNzQuMDggNzQuMDggMCAwIDEtMTIuODgyLTIuMjc0bC0zLjg1NSAxNC40MDFhODguNTI0IDg4LjUyNCAwIDAgMS0xNC43Mi01LjQwMiA4OC43OTcgODguNzk3IDAgMCAxLTEzLjUzOC03Ljg5MWwtOC41MyAxMi4yYTEwMy44NDggMTAzLjg0OCAwIDAgMCAxNS43NzkgOS4xOTIgMTAzLjE0NiAxMDMuMTQ2IDAgMCAwIDE3LjE1MSA2LjI5IDEwNC4wOTQgMTA0LjA5NCAwIDAgMCAxNy45OTYgMy4xNzNjMy4wMS4yNjUgNi4wNTguNDA0IDkuMTQuNDA0IDMuMDc3IDAgNi4xMjItLjE0IDkuMTM1LS40MDRhMTAzLjk2OSAxMDMuOTY5IDAgMCAwIDE3Ljk5MS0zLjE3MyAxMDIuOTQzIDEwMi45NDMgMCAwIDAgMTcuMTU3LTYuMjlsLTYuMjktMTMuNWE4OS4wODIgODkuMDgyIDAgMCAwIDEzLjUzMy03Ljg5MnoiIGZpbGw9IiM1MkMxREIiLz48cGF0aCBkPSJNMjE5LjM2OCA3NC41NjZhMTA0Ljc1OSAxMDQuNzU5IDAgMCAwLTI1LjYtMjUuNDE4bC04LjUzNiAxMi4yMDNhODkgODkgMCAwIDAtMTMuNDMtNy43MmwtNi4yOTcgMTMuNTE1YTczLjk3OCA3My45NzggMCAwIDEgMTEuMTg1IDYuNDE3IDc0Ljg1MyA3NC44NTMgMCAwIDEgOS45MjggOC4yNWwtMTAuNTIgMTAuNTMxLTEwLjUyOSAxMC41MzJhNDQuMzYgNDQuMzYgMCAwIDEgNS4wMjkgNS44NzYgNDQuMzk3IDQ0LjM5NyAwIDAgMSAzLjk2NSA2LjY1OGwyNi45NzMtMTIuNTkgMTMuNDk0LTYuMjk3IDEzLjQ4Ny02LjI5N2ExMDQuMTU2IDEwNC4xNTYgMCAwIDAtOS4xNDktMTUuNjYiIGZpbGw9IiM1MkMxREIiLz48cGF0aCBkPSJNMjQzLjc1MiA1Ny40ODJhMTM0Ljg2NiAxMzQuODY2IDAgMCAwLTE1LjA0My0xNy44MDIgMTM0LjUzOCAxMzQuNTM4IDAgMCAwLTM4LjAzNi0yNi41NTUgMTMzLjI5MyAxMzMuMjkzIDAgMCAwLTIxLjg3NS03LjkzMiAxMzMuMzE1IDEzMy4zMTUgMCAwIDAtMjIuOTEzLTMuOTk5bC0xLjI5NSAxNC44MzljNi45NzQuNTk4IDEzLjc3NyAxLjggMjAuMzU0IDMuNTQ4bC0zLjg1IDE0LjM5M2ExMDMuNTY4IDEwMy41NjggMCAwIDEgMTYuOTkzIDYuMTU2IDEwMy43MjQgMTAzLjcyNCAwIDAgMSAxNS42ODEgOS4wMTggMTA0LjgzNyAxMDQuODM3IDAgMCAxIDI1LjYgMjUuNDE4IDEwNC4xNTYgMTA0LjE1NiAwIDAgMSA5LjE0OSAxNS42NmwxMy40ODUtNi4yOTYgMTMuNDkxLTYuMjk2YTEzNC4yMTQgMTM0LjIxNCAwIDAgMC0xMS43NDEtMjAuMTUyIiBmaWxsPSIjM0I1MjhBIi8+PHBhdGggZD0iTTE3OC4wODcgNDAuMTNhMTAzLjU2OCAxMDMuNTY4IDAgMCAwLTE2Ljk5My02LjE1NiAxMDMuNjEgMTAzLjYxIDAgMCAwLTE3LjgwMy0zLjEwNGMtMi45OC0uMjU3LTUuOTg4LS4zOTUtOS4wMzMtLjM5NWExMDUgMTA1IDAgMCAwLTkuMDM2LjM5NSAxMDMuNjIgMTAzLjYyIDAgMCAwLTE3Ljc5OSAzLjEwNGwzLjg1IDE0LjM5YTg4LjMzOCA4OC4zMzggMCAwIDAtMTQuNTU4IDUuMjY3bDYuMjkzIDEzLjUxN2E3NC4zMyA3NC4zMyAwIDAgMSAxMi4xMTgtNC4zOSA3NC42NjcgNzQuNjY3IDAgMCAxIDEyLjY5NC0yLjE5NyA3NC4yMiA3NC4yMiAwIDAgMSA2LjQzOC0uMjk2YzIuMTcgMCA0LjMxMy4xMTEgNi40NC4yOTZhNzQuNTkgNzQuNTkgMCAwIDEgMTIuNjg4IDIuMTk3IDczLjc5IDczLjc5IDAgMCAxIDEyLjEyIDQuMzg4bDYuMjk3LTEzLjUxNWE4OSA4OSAwIDAgMSAxMy40MyA3LjcybDguNTM1LTEyLjIwM2ExMDMuNzI0IDEwMy43MjQgMCAwIDAtMTUuNjgxLTkuMDE4IiBmaWxsPSIjMDBBRUU4Ii8+PHBhdGggZD0iTTE0NC41OSAxNi4wMzNsMS4yOTUtMTQuODM5Yy0zLjgzMy0uMzMtNy43MDktLjUwOC0xMS42MjctLjUwOC0zLjkxNyAwLTcuNzkyLjE3OC0xMS42MjUuNTA4YTEzMy40MTUgMTMzLjQxNSAwIDAgMC0yMi45MTcgNCAxMzIuNjg3IDEzMi42ODcgMCAwIDAtMjEuODcyIDcuOTM2IDEzMy42NDQgMTMzLjY0NCAwIDAgMC0yMC4xNjkgMTEuNjE4QTEzNC42NTQgMTM0LjY1NCAwIDAgMCAzOS44MDQgMzkuNjhsMTAuNTIzIDEwLjUzMkExMTkuNjMgMTE5LjYzIDAgMCAxIDY2LjIxIDM2Ljk0OGw4LjUzNiAxMi4yMDRhMTAzLjY5OCAxMDMuNjk4IDAgMCAxIDMyLjY3Ny0xNS4xNzggMTAzLjYyIDEwMy42MiAwIDAgMSAxNy44LTMuMTA0IDEwNSAxMDUgMCAwIDEgOS4wMzUtLjM5NWMzLjA0NSAwIDYuMDUzLjEzOCA5LjAzMy4zOTUgNi4xLjUyNiAxMi4wNSAxLjU3IDE3LjgwMyAzLjEwNGwzLjg1LTE0LjM5M2ExMTguNjYzIDExOC42NjMgMCAwIDAtMjAuMzU0LTMuNTQ4IiBmaWxsPSIjM0Y4QUJEIi8+PHBhdGggZD0iTTExMS4yNzMgNDguMzY0bC0zLjg1LTE0LjM5YTEwMy42OTggMTAzLjY5OCAwIDAgMC0zMi42NzggMTUuMTc4IDEwNC42OTkgMTA0LjY5OSAwIDAgMC0xMy44OTggMTEuNTkxIDEwNS4zNjggMTA1LjM2OCAwIDAgMC0xMS43MDMgMTMuODI4bDEyLjE5MiA4LjU0MWE4OS4wMDggODkuMDA4IDAgMCAwLTcuODQ5IDEzLjQxbDEzLjQ5NSA2LjI5OGE3NC40NjkgNzQuNDY5IDAgMCAxIDYuNTU4LTExLjE1MyA3NS4yNSA3NS4yNSAwIDAgMSA4LjM1NS05Ljg1NSA3NC45NTggNzQuOTU4IDAgMCAxIDkuOTI1LTguMjUgNzQuMjQzIDc0LjI0MyAwIDAgMSAxMS4xODgtNi40MTRMOTYuNzE1IDUzLjYzYTg4LjMzOCA4OC4zMzggMCAwIDEgMTQuNTU4LTUuMjY3IiBmaWxsPSIjNTJDMURCIi8+PHBhdGggZD0iTTY2LjIxIDM2Ljk0OGExMTkuNjMgMTE5LjYzIDAgMCAwLTE1Ljg4MyAxMy4yNjRMMzkuODA0IDM5LjY4YTEzNC44MDUgMTM0LjgwNSAwIDAgMC0xNS4wMzggMTcuODA1QTEzMy42NzMgMTMzLjY3MyAwIDAgMCA0Ljk1MyA5OS41NDJhMTM0LjE1OCAxMzQuMTU4IDAgMCAwLTQuMTMgMjIuOTk1bDE0LjgyNSAxLjNhMTE4LjU3MiAxMTguNTcyIDAgMCAxIDMuNjgyLTIwLjQ0bDE0LjM3MyAzLjg1N2ExMDMuMjk3IDEwMy4yOTcgMCAwIDEgNi4yOTgtMTcuMDI4IDEwMy45MzggMTAzLjkzOCAwIDAgMSA5LjE0My0xNS42NTVjMy41MDMtNC45NDYgNy40Mi05LjU3IDExLjcwMy0xMy44MjhhMTA0LjY5OSAxMDQuNjk5IDAgMCAxIDEzLjg5OS0xMS41OUw2Ni4yMSAzNi45NDciIGZpbGw9IiMwMEFFRTgiLz48cGF0aCBkPSJNMzkuNTQ2IDE3OC40M2ExMDMuODYyIDEwMy44NjIgMCAwIDEtNi4xMzgtMTcuMTU4IDEwMy42NjcgMTAzLjY2NyAwIDAgMS0zLjA0LTE3Ljk1IDEwNS4yNTYgMTA1LjI1NiAwIDAgMS0uMzQ3LTguNTFjMC0zLjI2NC4xNTktNi40OTQuNDU1LTkuNjc4YTEwMy43NjYgMTAzLjc2NiAwIDAgMSAzLjIyNy0xNy44OGwtMTQuMzczLTMuODU3YTExOC41NzIgMTE4LjU3MiAwIDAgMC0zLjY4MiAyMC40NGwtMTQuODI0LTEuM2ExMzYuODI3IDEzNi44MjcgMCAwIDAtLjU2MiAxMi4yNzVjMCAzLjc0LjE2IDcuNDQzLjQ1NSAxMS4xMDMuNjUyIDcuOTA0IDEuOTggMTUuNjEgMy45MzUgMjMuMDY4IDIuMDA3IDcuNjM0IDQuNjY5IDE1LjAwMSA3LjkxOCAyMi4wMzhhMTMzLjkyMiAxMzMuOTIyIDAgMCAwIDExLjY0NyAyMC4zMjhsMTIuMTkyLTguNTQ1YTExOC45NDMgMTE4Ljk0MyAwIDAgMS0xMC4zNDgtMTguMDhsMTMuNDg1LTYuMjk0IiBmaWxsPSIjM0Y4QUJEIi8+PHBhdGggZD0iTTYwLjAzNyAxNDAuNzIxYTc0LjkxMSA3NC45MTEgMCAwIDEtLjI1My01LjkwOWMwLTIuMzkuMTI0LTQuNzUxLjMzOS03LjA4MWE3NC4yODUgNzQuMjg1IDAgMCAxIDIuMzQ5LTEyLjc2NCA3My45NTYgNzMuOTU2IDAgMCAxIDQuNTEtMTIuMTQ3bC0xMy40OTUtNi4yOTdhODkuMDA4IDg5LjAwOCAwIDAgMSA3Ljg1LTEzLjQxTDQ5LjE0MyA3NC41N2ExMDMuOTM4IDEwMy45MzggMCAwIDAtOS4xNDMgMTUuNjU1IDEwMy4yOTcgMTAzLjI5NyAwIDAgMC02LjI5OCAxNy4wMjggMTAzLjc2NiAxMDMuNzY2IDAgMCAwLTMuMjI3IDE3Ljg4IDEwNC41ODggMTA0LjU4OCAwIDAgMC0uNDU1IDkuNjc4YzAgMi44NjUuMTIgNS43MDIuMzQ3IDguNTFhMTAzLjY2NyAxMDMuNjY3IDAgMCAwIDMuMDQgMTcuOTVsMTQuMzc3LTMuODU3YTg4LjQ5NSA4OC40OTUgMCAwIDAgNS4yNDggMTQuNzE1bDEzLjUwMy02LjI5OWE3NC4xNTUgNzQuMTU1IDAgMCAxLTQuMzcyLTEyLjI3NCA3NC4wNTUgNzQuMDU1IDAgMCAxLTIuMTI3LTEyLjgzNiIgZmlsbD0iIzNCNTI4QSIvPjxwYXRoIGQ9Ik04OS45NzIgMjI5LjI3OWExMDMuODQ4IDEwMy44NDggMCAwIDEtMTUuNzgtOS4xOTFBMTA0Ljk0NSAxMDQuOTQ1IDAgMCAxIDYwLjI2IDIwOC4yOWExMDQuODY4IDEwNC44NjggMCAwIDEtMTEuNjYtMTQuMDI5IDEwNC4yODUgMTA0LjI4NSAwIDAgMS05LjA1NC0xNS44MzFsLTEzLjQ4NSA2LjI5NGExMTguOTQzIDExOC45NDMgMCAwIDAgMTAuMzQ4IDE4LjA4bC0xMi4xOTIgOC41NDVhMTM0LjcxNSAxMzQuNzE1IDAgMCAwIDMyLjkwNSAzMy4xNCAxMzQuMTg3IDEzNC4xODcgMCAwIDAgMjAuMjY4IDExLjc5NWw2LjI5NC0xMy41YzYuMjUgMi45NCAxMi44IDUuMzUyIDE5LjU5IDcuMTc3bDMuODUtMTQuMzkyYTEwMy4xNDYgMTAzLjE0NiAwIDAgMS0xNy4xNTItNi4yOSIgZmlsbD0iIzUyQzFEQiIvPjxwYXRoIGQ9Ik0xMDIuNTUzIDIwMi4yNzJhNzQuMzEzIDc0LjMxMyAwIDAgMS0xMS4yNzgtNi42MDQgNzQuNjcgNzQuNjcgMCAwIDEtOS45NjctOC40NDYgNzQuOTMyIDc0LjkzMiAwIDAgMS0xNC43NzItMjEuMzlsLTEzLjUwMyA2LjI5OGE4OC40OTUgODguNDk1IDAgMCAxLTUuMjQ4LTE0LjcxNWwtMTQuMzc3IDMuODU3YTEwMy44NjIgMTAzLjg2MiAwIDAgMCA2LjEzOCAxNy4xNThBMTA0LjI4NSAxMDQuMjg1IDAgMCAwIDQ4LjYgMTk0LjI2YTEwNC44NjggMTA0Ljg2OCAwIDAgMCAxMS42NiAxNC4wMjkgMTA0Ljk0NSAxMDQuOTQ1IDAgMCAwIDEzLjkzMiAxMS43OThsOC41MzEtMTIuMjAxYTg4Ljc5NyA4OC43OTcgMCAwIDAgMTMuNTM3IDcuODkgODguNTI0IDg4LjUyNCAwIDAgMCAxNC43MiA1LjQwM2wzLjg1Ni0xNC40YTczLjg5OSA3My44OTkgMCAwIDEtMTIuMjgzLTQuNTA4IiBmaWxsPSIjMDBBRUU4Ii8+PHBhdGggZD0iTTIwMi44NiAyMzIuMjkxYTExOS40MjMgMTE5LjQyMyAwIDAgMS0xOC4wMjYgMTAuNDk0IDExOC4zNzcgMTE4LjM3NyAwIDAgMS0xOS41OTQgNy4xNzZsLTMuODU1LTE0LjM5MmExMDMuOTY5IDEwMy45NjkgMCAwIDEtMTcuOTkxIDMuMTczYy0zLjAxMy4yNjUtNi4wNTguNDA0LTkuMTM2LjQwNC0zLjA4MSAwLTYuMTMtLjE0LTkuMTM5LS40MDRhMTA0LjA5NCAxMDQuMDk0IDAgMCAxLTE3Ljk5Ni0zLjE3M2wtMy44NSAxNC4zOTJhMTE4LjAzNyAxMTguMDM3IDAgMCAxLTE5LjU5LTcuMTc2bC02LjI5MyAxMy41YTEzMy4wOTUgMTMzLjA5NSAwIDAgMCAyMi4wMzQgOC4wNjYgMTMzLjc1MSAxMzMuNzUxIDAgMCAwIDIzLjEwNiA0LjA2N2MzLjg2Ny4zMzcgNy43NzYuNTE4IDExLjcyOC41MTggMy45NTMgMCA3Ljg2My0uMTgxIDExLjczLS41MThhMTMzLjgyNiAxMzMuODI2IDAgMCAwIDIzLjEwNi00LjA2NyAxMzMuNjkzIDEzMy42OTMgMCAwIDAgNDIuMzAyLTE5Ljg2MWwtOC41MzYtMTIuMTk5IiBmaWxsPSIjM0I1MjhBIi8+PHBhdGggZD0iTTIzMi4xMDkgMjAyLjgwNGwtMTIuMTkyLTguNTQzYTEwNC43OTcgMTA0Ljc5NyAwIDAgMS0xMS42NiAxNC4wMjkgMTA0Ljk2MyAxMDQuOTYzIDAgMCAxLTEzLjkzMiAxMS43OTggMTAzLjc1NCAxMDMuNzU0IDAgMCAxLTE1Ljc4MyA5LjE5MSAxMDIuOTQzIDEwMi45NDMgMCAwIDEtMTcuMTU3IDYuMjlsMy44NTUgMTQuMzkyYTExOC4zNzcgMTE4LjM3NyAwIDAgMCAxOS41OTQtNy4xNzYgMTE5LjQyMyAxMTkuNDIzIDAgMCAwIDE4LjAyNi0xMC40OTRsOC41MzYgMTIuMTk5YTEzNC41ODcgMTM0LjU4NyAwIDAgMCAzMi45LTMzLjE0bC0xMi4xODctOC41NDYiIGZpbGw9IiMwMEFFRTgiLz48cGF0aCBkPSJNMjA3LjczIDE4NS43MThsLTEyLjE5Ni04LjU1YTc0LjY5NiA3NC42OTYgMCAwIDEtOC4zMjQgMTAuMDU0IDc1LjMyNiA3NS4zMjYgMCAwIDEtOS45NjggOC40NDZsOC41NDMgMTIuMjE5YTg5LjA4MiA4OS4wODIgMCAwIDEtMTMuNTMyIDcuODkzbDYuMjg5IDEzLjQ5OWExMDMuNzU0IDEwMy43NTQgMCAwIDAgMTUuNzgzLTkuMTkxIDEwNC45NjMgMTA0Ljk2MyAwIDAgMCAxMy45MzEtMTEuNzk4IDEwNC43OTcgMTA0Ljc5NyAwIDAgMCAxMS42NjEtMTQuMDI5bC0xMi4xODctOC41NDMiIGZpbGw9IiM1MkMxREIiLz48cGF0aCBkPSJNMTg1Ljc4NSAyMDcuODg3bC04LjU0My0xMi4yMTlhNzQuMDM5IDc0LjAzOSAwIDAgMS0xMS4yODcgNi42MDQgNzMuOTY2IDczLjk2NiAwIDAgMS0yNS4xNTUgNi43ODFjLTIuMTYuMTktNC4zMzguMzA0LTYuNTQyLjMwNC0yLjIwMyAwLTQuMzg1LS4xMTUtNi41NC0uMzA0YTc0LjA4IDc0LjA4IDAgMCAxLTEyLjg4Mi0yLjI3NGwtMy44NTUgMTQuNDAxYTg4LjUyNCA4OC41MjQgMCAwIDEtMTQuNzItNS40MDIgODguNzk3IDg4Ljc5NyAwIDAgMS0xMy41MzgtNy44OTFsLTguNTMgMTIuMmExMDMuODQ4IDEwMy44NDggMCAwIDAgMTUuNzc5IDkuMTkyIDEwMy4xNDYgMTAzLjE0NiAwIDAgMCAxNy4xNTEgNi4yOSAxMDQuMDk0IDEwNC4wOTQgMCAwIDAgMTcuOTk2IDMuMTczYzMuMDEuMjY1IDYuMDU4LjQwNCA5LjE0LjQwNCAzLjA3NyAwIDYuMTIyLS4xNCA5LjEzNS0uNDA0YTEwMy45NjkgMTAzLjk2OSAwIDAgMCAxNy45OTEtMy4xNzMgMTAyLjk0MyAxMDIuOTQzIDAgMCAwIDE3LjE1Ny02LjI5bC02LjI5LTEzLjVhODkuMDgyIDg5LjA4MiAwIDAgMCAxMy41MzMtNy44OTIiIGZpbGw9IiMzRjhBQkQiLz48L3N2Zz4=;" vertex="1" parent="1">
          <mxGeometry x="46.45" y="370" width="57.09" height="60" as="geometry" />
        </mxCell>
        <mxCell id="AoLgpuZGE-U0Y9UZInxb-10" value="" style="outlineConnect=0;dashed=0;verticalLabelPosition=bottom;verticalAlign=top;align=center;html=1;shape=mxgraph.aws3.cloud_2;fillColor=#F58534;gradientColor=none;" vertex="1" parent="1">
          <mxGeometry x="170" y="20" width="40" height="40" as="geometry" />
        </mxCell>
        <mxCell id="AoLgpuZGE-U0Y9UZInxb-11" value="" style="whiteSpace=wrap;html=1;fillColor=none;strokeColor=#FF9933;" vertex="1" parent="1">
          <mxGeometry x="170" y="20" width="800" height="580" as="geometry" />
        </mxCell>
        <mxCell id="AoLgpuZGE-U0Y9UZInxb-12" value="users" style="shape=umlActor;verticalLabelPosition=bottom;verticalAlign=top;html=1;outlineConnect=0;strokeColor=#FF9933;fillColor=none;" vertex="1" parent="1">
          <mxGeometry x="1090" y="650" width="30" height="60" as="geometry" />
        </mxCell>
        <mxCell id="AoLgpuZGE-U0Y9UZInxb-14" value="" style="outlineConnect=0;dashed=0;verticalLabelPosition=bottom;verticalAlign=top;align=center;html=1;shape=mxgraph.aws3.route_53;fillColor=#F58536;gradientColor=none;strokeColor=#FF9933;" vertex="1" parent="1">
          <mxGeometry x="830" y="550" width="70.5" height="85.5" as="geometry" />
        </mxCell>
        <mxCell id="AoLgpuZGE-U0Y9UZInxb-15" value="VPC" style="points=[[0,0],[0.25,0],[0.5,0],[0.75,0],[1,0],[1,0.25],[1,0.5],[1,0.75],[1,1],[0.75,1],[0.5,1],[0.25,1],[0,1],[0,0.75],[0,0.5],[0,0.25]];outlineConnect=0;gradientColor=none;html=1;whiteSpace=wrap;fontSize=12;fontStyle=0;shape=mxgraph.aws4.group;grIcon=mxgraph.aws4.group_vpc;strokeColor=#248814;fillColor=none;verticalAlign=top;align=left;spacingLeft=30;fontColor=#AAB7B8;dashed=0;" vertex="1" parent="1">
          <mxGeometry x="220" y="70" width="710" height="470" as="geometry" />
        </mxCell>
        <mxCell id="AoLgpuZGE-U0Y9UZInxb-17" value="Public subnet" style="points=[[0,0],[0.25,0],[0.5,0],[0.75,0],[1,0],[1,0.25],[1,0.5],[1,0.75],[1,1],[0.75,1],[0.5,1],[0.25,1],[0,1],[0,0.75],[0,0.5],[0,0.25]];outlineConnect=0;gradientColor=none;html=1;whiteSpace=wrap;fontSize=12;fontStyle=0;shape=mxgraph.aws4.group;grIcon=mxgraph.aws4.group_security_group;grStroke=0;strokeColor=#248814;fillColor=#E9F3E6;verticalAlign=top;align=left;spacingLeft=30;fontColor=#248814;dashed=0;" vertex="1" parent="1">
          <mxGeometry x="250" y="105" width="660" height="405" as="geometry" />
        </mxCell>
        <mxCell id="AoLgpuZGE-U0Y9UZInxb-18" value="EC2 instance contents" style="points=[[0,0],[0.25,0],[0.5,0],[0.75,0],[1,0],[1,0.25],[1,0.5],[1,0.75],[1,1],[0.75,1],[0.5,1],[0.25,1],[0,1],[0,0.75],[0,0.5],[0,0.25]];outlineConnect=0;gradientColor=none;html=1;whiteSpace=wrap;fontSize=12;fontStyle=0;shape=mxgraph.aws4.group;grIcon=mxgraph.aws4.group_ec2_instance_contents;strokeColor=#D86613;fillColor=none;verticalAlign=top;align=left;spacingLeft=30;fontColor=#D86613;dashed=0;" vertex="1" parent="1">
          <mxGeometry x="280" y="140" width="610" height="330" as="geometry" />
        </mxCell>
        <mxCell id="AoLgpuZGE-U0Y9UZInxb-21" value="" style="shape=image;html=1;verticalAlign=top;verticalLabelPosition=bottom;labelBackgroundColor=#ffffff;imageAspect=0;aspect=fixed;image=https://cdn4.iconfinder.com/data/icons/logos-3/181/MySQL-128.png;strokeColor=#FF9933;fillColor=none;" vertex="1" parent="1">
          <mxGeometry x="720" y="257.5" width="70" height="70" as="geometry" />
        </mxCell>
        <mxCell id="AoLgpuZGE-U0Y9UZInxb-23" value="" style="edgeStyle=none;rounded=0;orthogonalLoop=1;jettySize=auto;html=1;entryX=1;entryY=0.25;entryDx=0;entryDy=0;" edge="1" parent="1" source="AoLgpuZGE-U0Y9UZInxb-22" target="AoLgpuZGE-U0Y9UZInxb-18">
          <mxGeometry relative="1" as="geometry" />
        </mxCell>
        <mxCell id="AoLgpuZGE-U0Y9UZInxb-22" value="" style="outlineConnect=0;dashed=0;verticalLabelPosition=bottom;verticalAlign=top;align=center;html=1;shape=mxgraph.aws3.s3;fillColor=#E05243;gradientColor=none;strokeColor=#FF9933;" vertex="1" parent="1">
          <mxGeometry x="1050" y="177" width="76.5" height="93" as="geometry" />
        </mxCell>
        <mxCell id="AoLgpuZGE-U0Y9UZInxb-27" value="" style="shape=image;verticalLabelPosition=bottom;labelBackgroundColor=#ffffff;verticalAlign=top;aspect=fixed;imageAspect=0;image=data:image/png,UklGRi51AABXRUJQVlA4TCJ1AAAvr0SdABnHjSQpkrKrdg+61n+HGd8R/Z8A3rWPkwS21fgAzczb+zFJNRPy20NAEjcNKGHnBMDQlUjaa2WLUybnOKmPExYWhb9HVFcllUrVESZmIiY5AkJyhotv3Ma2rSobiezMximD/uugAJfozY8Ycv9Y7ESybak5ZLyKOhn13f+qkEjUq6gU5EiSJCmx1iHEHhxhuSrwZIRHLV79nwAM+J+j8VR5L1t9cqLxH0EOa6t3QDS6+o6phmg8CIIgwO4590VR4ELVba8RotFotEQAmG8DrplFmc2371dEo3FD1/y1eb9PK9Ho5r2SAQBwJmbMUGlOL2HGAQAAgBiNxr+SMSvZ6j2g9mi0ZNGSEd6AGTMURep7Q48jGuVXLrkWOwhAo9VilONJQX6ANgA0Go1Wh+hNL07/yA0AOgGiabV40YteFOQSxsAO/abRagFEMdzlQxBOANBoUC2fbh4HbSNJksMfdvXuPQgiYgKSjZCcCRKEyEZIzmwQITkTIiSbTZCc2QRBHrNl85hvVkQvvlpBoi9VQX5ZtoK+56n84++6PHc0TbIR0pAzyEYnimzk00qO/LBFvzM+6+qpB5sQREjOhMgGOXPmzpkz2qhtWy25jd73+/Y+WKfOKWyoqmZ1S2oLjWFmZmZmTn4NMzNDmJnBzMwsLzF0q7qquqpO1aG99/f9KDqnaqukPnXW8htGjQwBh1nWqsk6hh6eM+SxQx3mGAKauAfaIA8e9/AEesJoCHNqWeE47XAiZzrM8nIHOrMM6nIYOsPcpoBBWlkdRvMfJe2g/vVKjEG5hw1hVjQ8wQpoDD+sMDObvWbZHqxZ6QkrzMzMPTwnoGQQE23bpi3ban3MtbbOXvuETlg3HO/Hs23bTn07/fM/5axt27aerxm+CONw7zVH94Bt/9nI///d9yNJzWk76Nieee2srdfbtm3btm3b1sv2a/f92p21d3bH7Mx06jR5xATog/9/ud24eX7P8xw+l+8Vg5ntXTvLDCkzMzMzMzMzhhnsZTaDZBZasvgKLvO5h8/z/HGOzj3nOY+u5Hn+OJ9xN4y33VFVJs/CnUQezQlHsxNw4BbXrbMOR6ETON7ZM3FmRxlODEU7JfsPj8JwwvHEq6LjqcOJZgPOzp1Vb1k3DGt1Go69UwWsMDhu2KNydxwGhRPL097Cwi3Xo0YdhRlslcFJuZ5wcgNKUTcMKtf2rFz0winX43A0KjfkWWe8Wu+knvH6wrZteVpt27bthEBoS6He293d3d3ve+5xd59yf55Zd3d3f4a7S72MegkVQiDE7Uqu6zr82LatWtsmSX2s5/3QmBklJtUKYCUyU1H+38+wIiaau0QaMzO7f/Azfu97ZkwAD3j97/W/1/9e/3v97/W/1/9e/3v97/W/1/9e/3v97/W/1/9e/3v97/W/1/9e/3v97/W/1/9e/3v97/W/1/9e/3v97/W/1/9e/3v97/W/1/9e/3v97/W/1/9e/3v97/V/T7iRzDCTyazBLE6h1u6/aw4WCj3YJgBlGwQTt6jcAiSGVrEJbilPUaRcsEKLaVFCdZjZA3hkWCz9MrzoAGDEBtFTcuhCKS4tLhWZLAc5U7ZmeW1UC95xxZrN74CtUb3BMcoNgIFVsMdQqoqigoLgMq3SDCMN9WDk2MiRp5PjnTJsdRJJsEwDDUa5V2paqhrTIztkK4s6x5qGRCRG+SXDJMuAaRhzG12P2RxpR8a4LDKBc2LP5cYsR7gA1ZpDhApggmJahH04bbkweqTRA/Ssngx8/vYzwcHbAqPXaM2n9OZfIs5LrcVjcqSzZqFlaZVYl6gryzUd2XqYjeTrZI1k25gWZoiethbJ+UnUdyiFe/KyCBi0ofvIAHnodeTk1jnjK0f1uCs0+J7WfkFrv6w3fxYxATixLzjlROlpWZSMVK4bDEghtoftX/3xaVvVbMvuLX8sta9DlDMnayXT0hvtyv+f7Xn/OKP+4+3WfptqvMsMo0dtGQr5IUgGLHALVa994V75vHrtfWkuL2teMOJRrfl7qP2y1n7pYaRm2mNY8OItHStoRZ9E6szS9QzmwPVTXB2zTnEb20rTjx0ly1kLXLAUTJyPqyAJO/+5evHr1ul7xtF3U3nFfgg4gP7DfsbWExvssbGK+Sjpyv4mqat6+Y/W/Epv7gRy8RgVeWjnXrVxeNV86ezJraOYOsV1mjU7rU1PIrOGkaJiePLYJys350yst9f195g9VceVyv6m1fXyK639i9Q84MaeGNJ/CbYoT2uuE3JZvoXYTgdqz5DXkzfRw6Nn/BBDDXz1QGOLqbNXlqdIq1ROakHEaSNuNcoZqUI8tkSeVqIz+yzG7uYZTGahbdWXaM7Rno3tYEbILB9Ec2wlWCC58XRns+uXjgXsVxRx1Ih/S12SsmNH2JRJy7hTs2bqxPJoXBkzpj2d9szUV7C7N6mYgrjq5tcff6upJUkDpKTyImaN8n8R48AGoLEheOqms+iUPC2UoX1t5pe19qGRJ6a8hhnYkipBfHVQbGyryhzJt6EUUBBxWi9HhKbaY0CM62aLhev2aY2PMhLKZC0RJ4t8muLWHn0tiLOwBIwBxtyJ0qSAJFUESjJOyrj6OfFYD9nsjO46WJOQYUOCGBFxUvSDlBtGhPwQ7ZPc5TzJExkoAZTaEJoROi7JS7kxHTK1JK7Npxk7oB/A9FNfFnsXxc1kbVUQ9ZFPNj/uwwWhBHG0K7Ui4oqMSbTGbrBquXDtPguzK5s0GKSkulbMnTQXyZpCfoh9yPQb/a2LEkk5QF7ElGStPUYDp9ZhwbQF0cX+QRA+eaOY+6c9Rd5Q5EcPcGyl+XADkyMpLlUB5mVce694LIapZ8DV+TRDpgsDdFbUo6Ie8/cmlaHHKGEQlBqLEhHakSpJLaON2AsGNcOC9afdSF6BAzBMfS3tGkXdlmXoYY6q/rDUki0CePF+mef/cunTw2Mr+PS2lEu0tClTGeBf++8pGjYdhh7q3RsjhnzAfvvxfkbiVSKWgp4aY3mXGFk4AHSeaj3NFWzrSAE9Wp7Ts1TcPdCf4tuU3zFiFqjGTLDRziugHXRmFeBn+pS3/GdmgpShxzsQrA0ehb59hTKILxEjwWIruZVdiswEgM4pN2muxnajitBDJmSJcsqGA/inaAsoxmMhhFNpVXQMW9kEUIHpn+pKbNutkIAe9OBxA0cB9DpS5cXaYh+M66JlsbPFAPgVt6a8SdZ2BfS4CappLgSiqUjxsQbHOBj4xg+RrFwqAfyybspbyRuttRl65Dwni5dqPxGlJG4iFdOAsqS0TmzrCQCKmS7FBqanCj34wGi5WoiI3gPwAEbsAt/UVWkljBwO4FYUt1Ns7lZICT38ca+wq7FERODg86AlZkFJ65Cb6AAAV1DewPQiWSgU6mY6VGEL0Ui0B/AvFZvASi2tRXoyIj4F4Ap/TX67tStQSLQjKFBVKV0MrQshg7qqU9ROl0oFEqzhrFnbRzfqtrkFy1SplrgtN4k82jrL7MyiO2a4skCYZQPSzbKX1y4gAkgTI6ulueRIpxIKwBH3I28r8qOwOAylDjiMiCgFDo9cqAg3cWcKt9qJHrWfRSSnvVHCKTUvxzQYB4JR0lRBRMVrxe8WC1RaJ6VZsDMxuX0ygiybeW5X+mfxuh0IJZoQcZTuWuAAmwHws4PUl8Z0I0UoRCKkuwGBiJZlmQTJQgOntrhen9O5jkxnpihcId8q6rG9h2wbM+65+YiqMmAR3LCP9KxxZwROATDRYZYtPJ+u9C/ndRCwmgzZdFtXMtJIAMVTJjEDPhQqJfiyTISbRLTqZMxQciFg5HLuGngWUQqmAT71RTH3euEpPjhrFXoZZyf39OR6DEqia5X6JHXxVl53AN4mQsHm6L1VCAA9S9bcY2+HwiaDikWXS0SJFNgHcuKmN/IM7LuzXz81DPgin/L/ldds74fzd9JB7nninrHcdNCSQEd53WdZfPifrNoUiNfUzCRJD+cDQHLyxj3Zk6EQqkDVQkTxcacEgoNNrmTza3SN3YYAKtQXi7l3qkvRUyjw6GnAecpZJ+qEROiQ0j9XXbyfedMaTX+CO6zCdGYVAP9hH87286MwilAVHAEmECWWAvnA7rImFp6ahERdE89SyCdgBNtL3ij6gV1sfbhQBX2l54w7vbA/VUqfpfavUPqX8Dr0goDRxGd4V2TQVI4AHCHrYNv3ZBUonCKwQmmRkIjWAByQKaXmNGjqAa1pZdZBVTnqnNONMO2UG1Ou13ttZtBbTYJLbaCzkCnNAHlovpCHZLguzZ0211myg7sL3cuyAx0/pQzfGk11/m5GWldZ4QOw3Z5rDkOhdcrbrDKaiBLoOrQXLSa0R3Na0TXjeakHmdyP75PfTHF9inXyemy3SVcto8oq4GIOJnCpDX7w7jOFjjJzbXSWN8+BTgq4SKrZAm7h2Y3uRnc9YbwJTtCQ1jnKxkgA/r0/fBLJoRD7OnbILEREE5ulHCnXXEqykna0FFtO7ZGelgdDRA0oNqe6fJqLerM9e69VAbcjVKAFqFKH4IJu0ElGL3u64c1RwOOo1TXM6VD7Ob35m4hTtyRVbWIzsrPyNREA1jrssO1QqOUiF9KECUSENkAW2kSLiQQ7YSkt7e6uq8sls7iCrEmzRn2J8nqy1iYNo0oQasuw1e7++OnSjkIv2BdOg6mXu/X2L6H2W6H2u3rzd6nzI5rQDN/1o/LNB4AU3b7itooyFHL3YjH9qABEANvRzj+Nm0Q43S3MvrfPNfPc9h56cOF+lLW0p6mvbtymZFIFhD5BBXbBLeRL198X52E1qEmjnDTKLVrzM639vt7c9ortTWQI9k2FOQQBVP5TqoiehMIvSj/7hScQxQFTykB7AZpCJp0F5zqzT3N1k5V4rak9T3Mm1fXG0eNIEQXPbPng2aputmKb1a1MG9gQMSPivF4e0svtIi4BlSYxRrQOOWQRANATR8qbUCiWMIAWJU9ClABVgKpUKd7gDKw5u81rZYd0xOQJf0y+2btrz+0ct09nlcFz//xpZk9sKXUecMvtQF5qUsTDRjwoYq69yUtw+o/awmYA/FRcMRVIrnBEhrnSKsOIUoBHKjM00aB4/aD2yWm1cHpauG7Kk01klvx2Ec/SrPX/njkEDw8alcb1+BLNJFWVyt6SjEWgmGji4lv9NcwYCKDvP2U796KUobA8OWSWGgYgAkSSA1dB2fYGZOKahoVip2d3l0ETRo1Xboh6TMQJyppJIT88HmFI/PpS8c6J4u8lKZ4m1aSFU06wsncNAqgoGkGmylB4Fubz7+qjJKBUQmppfLyhjDzbomxJPWomTBYkuSO1Z6gvkzcaQWZBFMcaxujT3T1R6sS0bLIJS3W2EhnPfACe9/bZLlKEwnUlWoQGwVhKAGWpVRFTgN0w1lgSi7nWtIXNsJms7QkPVGzatAKieZS7R9hMlPyn48bFm6rwsiozZgyHAgCd9+hrDUMh20CDyf4V3uT+KP4qr/juIjKp+rfFTS/l04GyNMjnp0enqLW7fMsIkvNDTO/eDriEKAX4mMOrJpuoVCcjBxwDUEyVo4fHDvRFofswByhE50bfhqhNxIKIU1Jzr1LPbJSC5dCK0jQBIGxN9VWKWx6d5CCyT2EVrZAbRMnlgSgQbJIySs8OMmoiANDZG1nrG1QeKUIhXIKP6pc6W9W5ErdMbUBW6JTQUWBOYtcjXkZqhdb4qH3DAMlu/53Ybmv5IbbvgTAN/sH3IKK9o4MsTYBNTyjZuPRgKKsE0Jcq0Nkxk6GQXqq1GcJx3DHQQOu8IYmfZovf4f1TlXoQqEUb9WX363HXgVZsqyCwZtTjRT+4/df3Q4QViHBKFwAojvA9VPwwxQeSk5JUZLN1eQ4AKWNGyXZQcf7CGsBadEjQnJifNbT4OAXfxZxm7uT9AaVuR3ejk4AVOSula1l2Cp5ldMBIVLDtLhb5xDSXvNAwiDIdjYmQigBQvJD4XsJ3857EJHSh57U6XgCw7V8hGRTqaZ0vBvVsBjZz6AM7YCnUMDdgDvE6wHMLyyF0YmRERiZqMdYo3PrWegtXyOunvkhz3pPKmsb7KYi0T5MWpdcPAZeg4gdI/CiJ9yUlZteeGTQSAEhO1vHoFKGwT+j1laSRC2SDHiAPdlLY44CLeLprrO5i2cvcjW5B1+z3lIBZJxkwcY+aTge00BUTLTnkTpmGSK8j71x5Lfm2KSO2pEoQ7zemo7F9APC+R+L7JSUcZyEd2Qz29AhVdAR6ClsUcHyb6AIZcH8eSYb9mUQyCWZnbWYmnapVHGduQ9ezTCC1LOuQQJKSJwKJCPomKNqlhbvsfnvdeQ5Ue6dEyUiblDOk341vo3eTtU3Z8y1GTCKz/BB3X3xarGMI6E/iXTp+jOL7B0tFfCYlRoMAwF/E9toePZEMKuhTnOZOdnD3FixVHhXLhWkn6JLPgRfxOvF9NSOFDjDXFK5YwSG3ejYxcLsn1Dj61nqIUqC1rYNsE7ZBtklUbsuqLauOGHaEH+K/weXkGgOQuPe5/D30lYYEDbBKZzayI7m11iKlnonanma10zAR4WocQXxoQ4ZHG4he1Nt59VaasXewus0kVzasAj1SNsQ4LQMQpHifxI+9D0VSEN9Wvc3BB6CYZLfmEehVTUguDRSiAVyCxA+Q+N6BEpCgxXRmSxcEQKLzb1nl72UFXCTabVAO8L7631T8IO/7kg9OuZQFC0IAUMV2/BX0yi4998fJLQRc4tL/W+LB68nzkBNN8wF4K1m7CpJDr21CmqB2TAwAxfsU30v4LhKvpByhq2TARMMB4K+UHYZe3izUycddCOhP8YqOHyLxvf2lG0ED6ZBnQQB+euaFKq7Q6wulWowNACDx3TwfDu4v1SjeOcVsKgEAqjgmQ48vgF7hrGTaYAww8LfS8SMU3y3R+MOpIS9MBYDi7f8zKSpGL/FQ8eX6cAT0/7V9KT5vktH3KpmwUBhAYNj4Kj96kZfLtc6YMUD/v0nx/sQmGNO6hB2mAcAwto3pVEGh1/nO1Rw4KwH6874Fl9uaWvBk4QZlRQ8HAMVbMhNV6JU+cDIGB4DD0RbgScSbVFT+oM7QJWEAfjI7eaPxfvRa37n6toylwcCJ22RkZZSaUgS3So90kVUAipnxdmSGVaBX+8Awx/ECKCWjMh6NphMlt5OMqaMABIrkdSRXjF7vhPjIUNJzg4lk6CiQnYo3jRg1Mh1J6Xm4MIAq2U5FH+RHr/hyG00sJqIUSeVlFJtEVI5sQ9lRPwD+qimyJqoMve6HtRAlQCWQAkYTiI3TkgOSySYApNyU/d+uCr3wW1qIKCVlof1oT6Kpw7gsau90ZhUA/xTZbq+6GXrlj3bC++WQCG2gvUDNfgE2aQhnoym6mUEcAf5N95c1d4N+9NJvmZAu2AUERDK4MrpmYlMG34YdWXLoB2CzTXtPqUKv/qXSxXzoMVuITsyygWUnOtJkIZhLTVwT5FgJ4N9bcdNvnFSBXv8KzAXf+p+JCAjx3MSyDZAmCjbczkulUS7CQPGOqquxXTv6sVrgiusC04IWoiSvo6weBhqaJAR1XnPc+sFhwF90n4/Ntq8Mqw22nJGwLvQPEtGH8nw+zz1rNEGwugxaAV1wO9OAI2RtG118+wqsVrgOcE5CnkhEgFfp36AuXo4ONTnw5VEj1wxdZYmA4k0vpr40pocUYbXD0xcuDEwLiWi/lsWnLIv37r2JgRT2uSXxauSuF8yNBiAN/T2H9fwLdn/j2IMGHfZLlJhrEhFQkZqWLCOkpoXfODe4BvQapLOBMvDZdEz1Go6R/r9qvcqPA4MGIZ5ECVpCiAgooAQVAIwmBW/Q39yw9KrBlqT9hG+kMcodpj0E93+q7Tx3hJU0CFHCJT0Bl7AkURwIIA1IONGE4DBftjHh6nGXeP+gKAXarvMRuP8L9sdpuU5ckAYpvk16MLfIHySKJxn1SAowqcmggA+wRdxrlW5ImNv8a4OHftyfcP+33qflBX75UBqkuGZaMKcYzuCaRIj7TMwt26Mmg89/r1crXQ967wf/bMIetktM/291PkjrVfANNtMgxiWzAn+HC0Spg6LSSCTRRGBwJdyKsD651w7uoBh82NA9Wi/B9RU6H4blefI1YCUNanSJmUJ2YBWiFBBEWpCaJDUN1GtL8DqsGw13G0aRdCliW2K7qAdzPIL9HGQoDXJ8ij6mO2AX1yQC8kiMkUY81BQwnOlWoLOwd5wf3OnzN+/y9tO+zkO91EEG0yDIDnAa0R1ckghwtodK7TrRBMCqDDUOr7980jE8gBSwkq/B+RD34XgC6jXeIQ2SvJPpRAHVEKLUeCD08YhQ1P+hrWLL48w+L5WMPCt5JMtz/IRDHZbfw8tDggZN5ou55oAZiEgqixiM5FdQlP/wbLaKlmBLowOS0u6gYsT+z2p/Gs/3lDunQZWq0NuiBco7EMWlFicD4UR0n0kd0Si2DFvZJdMjWlT1SKqLaS5QbviC5/5AGnS5v47BgUvwdiBa7LjNiEnR+7xMXBqt4g5tgg4uFX1CU3bSnnEz8i1T6KyhNCizJyJBa2gAiotYARVRnkTUXjDXWsSWdSvizXafOmFv5cZUV0990U+T7VZ0hB+DNG2go8QrtBINkbom2UA8FJ0//Bk6hiZanJ3tqC3ugh6QNamuNG0jtn1sX5Ufq3V6kOOXtahcApHUynWDysloPJ+Ra4dG7Kb/bTf0HslPO8e0+9hfvuuwq5ZhNVAPvJPyJQSHIBJxRcRUKhF1Z1UGbd2ENVZ7JOlRdUXUgLyRct19/jRZO3pYUQVWE0WYCQyxVQSIRJyWmkQMiq735dsNNIn927a4QLo+nowpbjZNfrvHlrV2P1tSAauVouCSGNaXJmoXMS7KxODoOZ+Zy9BNbbICtfXpZlmUO8vcQ3Z7JGWN8ubWY3ro8RVVYDVUNFxQK+IfgwgoGOWk0DVAo+NsspLBOqBl0pZtnUipsfRCfhbTcN795TtkTesdtn0ZPJgXqq2sKcxF3hZ3w5Dw0kRARuo0aBFB9JtNOdEaV+6Q1jZc6aOyS/ohSzfbLrqR8kayHetN2nt9MosUwYPXtI843WmZ9aWc6RxcU859Wfq9QCO5SI7a2vZx3jHJOcYblmGFhftwlRkqnDdUbMVgw/g47FFvsk0WGB4agAhYkLo+BGA0G28TLNrqgBu60nmSQ1opcyY/Y9zFbPozsqYpezIDa4/3wcOVhvkHcBZv4VrOImsHnRPJ2SXpO7HZx6T8BVmERmmqlkE5Y9tS3oEr+fuv5q7MuLoNx6RsHxn2QWpBdW2C9i1kw1zzdPlWDDbl5tQbtDxH2xXwu/z/kKgHi3eX+A1vBykQiZiTsQGYUWu+oQcf1ZV1sbN1DOnKm9F3WFrxrajm2HpHTpm09/rDhhXD09d0jDnrS3lWb4N7G/WeBtBB2VA2skfKJvT8H9CyCAzC/9z9yLkeR871OHomb/+EZ9tS2lLePkha2gG1DKhlkKvRH7G5HNkIvg3ZszkbhQlR8cYf98wf5HgUb/qgx4xYFsw3+y+hlYhueHuAh6LPB/8gk3SUQZtc6SafJL1YduZVjF3mOqZOthvbcftMv22ZcTdIiiCKUzzLOJM3Ya0vhUT8qmqoZm5NxlVjzDtk9oq4L4h6B4u4WGGW2BfpKul+5Gz2znlXl7UPLbV0c+3lbEZ3M9UhccAL8BsHCvMJr7Wx0E2gj/1un3Uf6g19KOdDdDyulhs8NpgRmboWCaBlHSumoATLZnQQiSASZcZrlzWS0RnveOWt06Lc6QztzK29ErWLbmKbsd172Ul0diRXRooglqt02jN5Nu9Ez6P0pVMpe9GdbBrjSmGFxBGOdQzLuvEfFmF5igJxBvheXqF/B9uowEuQs1XR47l3MHUAMcQHCFU1BB/8klfamHSDxj+pFI658x0d7VD7sF7FdiNwJ73FXKN4htYXJXSc50HuxlNQtDgvq8aeOxdrdAwd3YXTinIzuRP6Udb2zI1IE7ttU3bgR97Kk/3dEEQUBeuwlLVjvu+Ljpzeq29xTaUC2yfHj3/rcq5FxmZFRYZdapNA4THtF2T5RVKmfvPakFyjqLC4w/CKaZixTeEJXDsZ3XsATKrl4Kcvks4FNgk2ZHxqsaCZLf/xxh1Pwvkt2i7gINhrmFTwWD3Mfh28HUIDJNApXg+cAomOjQ4blEq/5oCu1jUk6wOyZww9xm3WNrId6WBamI4ROzKTPRkpK6uAqE6xj/M9Hzg907mHeh0/2ePo2ewd8145Gs3I3tnV+gs4uoAKVold1aMQBEWr9vNkc1kEJV1ci9gbeo3iGYa3GmWA5T6FpzIGgAhiUR0HG2KpMb+wWen9/amV3wArP069BvszdD4I+0PzyvXc6HCkwV/7K/t3GF65hCTLNp43rgGUAYOiu3mtmxsd8gwfcJ6zHfU3dZPyR9OPsnSy7eCb6J32XpsZte1VX5LOUSWILQt1dat5+yZ6nxyf/szRznuv5a7MpU3L9kHN+4OfxjnI1BrA2pQeLWLSKkwggoBYFvsFKPfE7Biw1tNgEXsgazURFHYY3qo3qTvmdVjGMlIPeCicAq7YH25LugnrxoRtwTs1kttVblHfFbBeWrd/a9ZyMcPvlrFq7RB+RldxRslTFM7Q6puY4BSve3iOijIpw6Zobl46+jVJtnWSWyOV0sp0GeNuW/xRuoXuxLRjeiZtW1REBT8Jfoiv2lY6773e9+yRnsdOTnPsZM7KrHs5Y2mDamxhbOYaZXQxJVCeCU48IeW2yLHBRASisQQ2N/6E2dW2eizUk+AU124pEPqNMaQ1MDIwu78bMwrKxxMU5qVCQrExZ2DL6GaETRrzSkOmtj8aOJHQd4f5WtVyKWN/cF59bn10LexiTziNxA37D7S0Q3knwWGa5w5eR4GKjFycorJ9Fttwr2xkuvN0w3kyyvJGDCOG0Q617cbtjGqNancre48fT2bR04YVQ5RX8Swvd9ozeYKPzds/kbljMb0rpU3CSnQwdnLdwGhBUkAU8bdQi12Brmpfn26vVIGICFpqe820b5Fv0dyU+DRIoJ6DO2n7rKBQ1GG4t6NUSqmPYzkqYwawKaIarBQHwH6hsxmbD53tdKbfSbf8gUDwaCx0uIbtjLuvSYevF8Tzi966HFRJykVEweskmA27Rr4jth8sMDQHTuOVk3Rg3CU1ik7ImJWx1k7R1jy4wJOV6Uop2rVzuHAGMqLUkJ/R7zK3mLay9e7OmX5M1wh60rZ01lXhh1izcG3DYs9jp3o+cKbXsZP5By532D3jnm1Yh0GubYrGGH1/D2kE4oiRoKqqrE5qKvT8NjhfBQq1HVBXDetlNTViC+AYJrO+PQMeOJOYjxQOMaQ1NBDM/hMAFlCkyAthn8VCxt2gDDWGMDqfsd1vrETlnnhwX0jM/EbjCjloSinHHHzTJXJ8ram1Hq219NZvNKYoWdAqUKXoalHgG7NshrJllOxA4QoW2IsF9qH/CguXEezhr0agMrQu8i7kbcqbgPvEdbJ18FXgnMf+wGMvR+a9pmXA7N3IO4hep9jpAAIbKLpmLLjqL1+0BdyvMaaTEp6RLAIFwKVa9lsstBAvAFhfc5HqEr+Y5SLnLLiRZanxbxOnMdaKaOL3D6+YUqpe6Z/As0/GXBvVzxcNtTAKxxJPqD15hTR03EXHEocc4bj3lqJlAROwkhQt/aJGQ21AUdQ/4oAVzLcf/fZiwRUW7tSBHcs6lI5YudDQfYRWqa1CW+dv2/+Dsvtkm/qqr3psMnleaBnCsx29z6DgCO1jGlVKbvoGbvl99AQZDblNNyVFyZrEmUy1D6fiLD4fZec/LPIpzCgRY+KZm32hEKnRz2C2MGsyO2SBDsNbQwMvq2NK3f1vZBTjFO2utfwNZTOWLmvRThTtwoIr6LcPRdtRMkZlqr8yuJDQhhqrgNuQt0WuA9aVrXPf+975csstNwaA2bOgZzvzDqHgCPIO8l2LrknhLU/JZrqydgUZ1GkXqOA6aB2oxKnuEzrYEvABACkoN9w1FUQL4XTIWQK7GERUobGXJk4vmc7ild7t8MolYHYq9TC4ScZiG0Wr+06stdRbhAYMjPiG/fdw/n06YAcLd6BsCRVDeoeoEHyb/AvaPegb0ObEVbJVHmQ/bJP7ZpvAuTQDWChczTqiq2OPE+x2DOnb1FiYFaueovuBiqwNeEuIHh1LUBbMHZnCrbclfHLNzr+jsuZI0XKJZwfyhBaL6EQadyp8zZmhA97WcG8HvalhdQfLG14cVKGodJvlIZtlI0tZVLJDS3bgVYqXUBbw9Qz2DPQIzaltUK4B7gHvQmwBtrjvV935cmO+HyvH0ELjBBfMB3mg835m7KD3PopuWCUbjd5FZ5CekJsFNZJpYBUopSj843onUi4AoHht5XpkllidvnB68E5oQgZcsxHXkglmhQWSwsDAGVr9Yw/mEMsD6LAs6ymKJp9mlDEYLR+5yuAykR1Ln8qapp+Vn2UYM/Zn7ArNRd9QYxPBpN4D1rFvtk7c4naPvfM3HkMLoRw6RDfoAroa2SCAUalA8d1IeV/n96jGgIHPICdZkdqIU4RtXKa23gcASJms2aP7RKmlO7x/t0BEuZDBRluLQ5gB9kZ8waIZhldMLaO08DyM2Qyab6PocY7y9Ws64bcn6aN6b2Eax+2Oa4xrZW2xtaL6yCBqhp+hpj7qjXc+5oRjTtgMJi2kMuCGXcHfyjHTgB8pDl/JNF0x6Q0O23TShgOCJcmqpIwo1cMJ2+hsHACQ3AcdKUoWeE5CL4iQiJS9QEljbeo0yItbgv06lHVs1dok5m6lbhZlTZZSnKLEbZbHLtzWNbf9UqIHySkyjdm64zZjamR167F9zKgn27LqCD96wC3LuIQss0DaPZFmesOocKx4kCpfaggOR7VB14mNsiJjGciBXKqnvKyayBNjAFDBDLMtJUKrnQE8A9EGiahoJ6/t2yW4jXgbjTKrmAdnQdLBgg1KO7T6xwn0dl53jpeRTVGUuIl++4puZdYK53mQqdYZtklxlfIaRZ2saQozRhVV+NFjtsJO4K/ngvSkVfDKKB7Gypc6feOe0KDeaJJGozIWgHwbSKk+02ajiSUA/H5+IXoaZaKTJ55jaIZJRHTN7+G6PyQVL6Pr32RMI+ybZ5L86YFCyYzeKbydD3MLy51AQMaqDIeiww26VFM0QkvWzbY5xDLFtnpS9QU3w7aP7aMnkVnoIbco4HQeaSfzr3e2aJhlRMqoLRnX+UY92mBAbxKirMtYWmlUnOr9KBXV5e4RACr5Cssx/Hwis/vzQPuACUQyuKVv4xV+Top3Svm7pOOP4UEbW4rYAcyK5ElKrMco71AxjRplQOlvlBESsdBG0eEmtcMiWpqt6rqQDmd9YsUm7bmpLqe8gd297f3oEbcgWKaD2c3aUbguqw0tpNSxsqVu/6gnNGjS26DRWIcE1kFOnBqkn+VivZpSUsjOtppl9fYSlSVPL3hG8IOJqHgHfsmXZZsn5bdXvg7+c0z7H4LRqEKYBWcx8yUfcrfDvZ3PKCMsd6FTIuYPDiJFg4fT0NSWYEtr63QMLWOG3Yf2NPWVyXYaMd6PHu8Em+AxskEuer9ZwJCnhGSZm8pLumLcrg36jSYhyqoo8ysBhRQ13KuwSbx3bF/mM40B4OeyLmd41Rlfflw1EZkBnruZLhBRcChX+FlZ99uNsaTtk6LvYocfU9tTXK7xtGJncVf5sEgY0KGsY8U0YZQxpT8kI/B5oyZTNDinHNzAGdly1BYZjjcqvKr6qndXXWmjEX70YEHk4ChWkBHaRW4O6sZQsFBmwNEydVeMW4PDJm0Q3vM7yVgDcilq8H3+x+OfjJfZKMJjKMTPn/VApheX/6aML4lbQqW6Q6eHTmPm3hJH0rjylSV/j4sXT3EL5wF6ghYiwOi3t2fd70iUdxaRbFn5KhT+sLj/Gq5/J1sVrGwUDbNICswZQjJgGVrSobwzKqYpvdmJHkH7gEyKosJ55WIlnEGHtnE5kVUYobqW9hTNGvmOvUkReqQtCnBKXz5dmmE3M7RjMF0+WWtKnaykoSwaKgb1wUGz3sREyT2VjJUHk1HeC5liSGVz2EnoC/jqM3snsrloRourqv2Cq/uOm/tTLyf/yKurecPN9OKrc+yMGcViZFHy6uKP/YeZD/3bhkf+Y8zeT/SVD7u0f7Hx+d/NPfEzRZ6RBs8VncXcARGxHMl77luX8jPfX/fb79rsy4/OfuxycFiRQ1a8UQZ8n2F/mM7/EceDtFzksRs9KGSaR+gL7SH9Gr3b8s7vm/SK2MFyeLGVAJuiwnkZrB0tnbaSe8pMWEVF4xW3RJykPeO9mX5UQA+whQlHUYzFj2IFLhkuLA+SFoZLZjomOAQkMRMGNb6sLW0S/jamN6ZeTKNAlJKM9S8FXDLVPvHcXNxzfl7uS/ny1X31VX35Vq/6vW/61t//1h/5/W/y5d/7XJ9453N85dUX/Lp3jFmKRaaFrnn1bdPl/1Nz6f/ELn2qrnwtP313VvbDnW7/kupvv++GPWK1M5aeDfxEIoDoRsviPRl3nnQOf/+8+ffPzHbi/NZOn1n3O27ZytlTpctrweNS/h5RXqDtGbE9Suf/wv4ob2loIwbBirmS7XcSBVhwwrKpWTGt8U0GReyRkQBWFwOUosPDazR2y4VfpVMQpCTbFnFKxLOUN7pzUgSRb1EFF0gXju8AN5WG6XTEoVAacbvjChHNsVMHiGg1GiDmz5hfjr+UQ1EywpYqS1WkCl8qwwZcMuFAhDW0eXg5ES+fyPsMvHwKXn2SdMdauoZHX2Z7ecd48wsX0Yk+9c3m336X9DnrW5oRZvMVx4ste8f0/IMn7jMLOHeYA4gICFoW71L6Z6L99s1gz/NdZ/5vT6hcys91+OrmX3Lscr/04y2/6IQYM3SE3jfhv6vPw/kVSf9bOL5FSDRWWpbshvSSeECp0X+GsqmvcmkwMN4EDIE9sszLKMpwKTo8mI2WbOXQPi1LZkIxM/TXIp+kvpysieQg0sM4jiJbpWKhdEin4JFkyczAcsmy4pGOiExLUtK1hutCWeuXBg0/1VDoi0pVRRRfRaoElOJU417IpHc+t1q/83xKGgNmjnwhIJcsntVXRj4AAD6dzxMIza3zE7tChhABEXXxGnXximMRocW25c+6lZr1m9u8040f/jOFn/xDX9joa+8TxZVD6rv4TwZ+grbH0OGn6XiQYxojCvzEPLGPJBvRwYBGSqfByqW0fzwWGm4RJShj/e5AStHiFkoOTamFUqMJAClj26dc77znpScVQ4SHHdKjBTfL6coc162ldLJuqpkuuWxJ1wUc9znmJx6q4SAxf/iCUQhFUY+iiJJUbtQoKRtw4rQXWojlTYcOCez9k+SNPCA0Iz4/b6YHTCRC+yyLt1jmb0KnAVJVtKSvxs74vw9d7C+//cJ/dOneicjYRt8rpfQT6PBT5HfR+LCDPMlj5IsqHAgGzIzyab1vsiUwGhalDV2SsTTq7ShaPPyuq7pmLBV6heFnBjban21HpnwQVQXbSukdLFF0sp7BQjZzmaxksuGilIbtsOEk4nDITtjihMVeqwzVPqGqiOrH7GzE+DhVvxdaCObcGk3gYDP57ZPXEx6redxnLB3dtxZI9O5q/zJ18VZ0KyBUo3XuO73/35d7o36+/dMylIjkAL6XUl+B9RkMbWR84mPMDHdSJgyYaFlnVkzrAqMn682wCBu0OCJOtJdosVAmtaVuSZbOSgGbMcPOK982qQLiyXCcZDO0kMncdjJY9LDgVtaT8NhMc8BByG6/nYDqGHecOcIIMnxAAB1Em/8bbcRpId/CLa40ckAVaS5iuwSntROyT+TbOSO5KMmyV+3fqPTPYdmepFratvwyQNXKAf9aghqVDLz4TJJso/8YA2cY7u08Wrsf2DUKyLVTNHm+OrK2rrfFeAH0pIvLt7A9VX6I4DBFFac3HMo6te5hMYvZXGZyyHhc3IkT00nQ7oQtYxbiFgIW+5hDQHgk4AV8aC9gUmORo2ScjscmB5MiHzdMYIF56BPhaK4WnhYrq/1LlP65vG5DJ5JU28KVxdLlNRlaDb9HfofxxkRLBpxB7GmWCAM7eDtUTE2pPt4/GQnKyAAORZWbkaaubItqAFQR062EHlUBjx9moZzNfCeuZ2k2l0mPFjJY8qTtdsRB1OmonajFMZ4pRg1zGBxhDu5ahrk8wAQ1Ki36wy0N9qRIfcFGEPgc7gvGZncqCoHiuy2L16uLt6Hb0R4Atd/iueOhtkLVWp8Gv4uhjYjRXcRZRYs5YIbWVqP4We5V6tbTyrApqtyqNK6dBlgQBCrYToqtMQP0LD88+S84lHNpzePlw+dqujOT2VpOs7jscSjgcNyWDVbXWojzDCOR/aKDp0B7AQ9AaoTyyrWFeJsDO/+dRz+6YQJT0hdLbz5J6AOALn/tcVn2JKj2vnFhPW+/VTRuNcu5/o04JzUaW/76upAuwrxTnLQ1MDIPxOtTmAMPFqeo8lF5uOd3NRKAK4wfMYIUwWMZyuTYKOYwm8+VzprI1nwmmUxnPHbTXOtyyuEUcz1zI2bdHtBRdATwJqjxOrwVLSGb7CpUtT4eApfTp0nP54ypiRZAl78oY0pGec+J2m399NlNvupho7jV2B6H/UGesNEwukAyi8ElJR1avR1vmtc9vG4GZdopunxQhsuQ3kIAKh6dbTWsGJ45zKZCthdyNNORyQJd7qCpTFbdZhohR9Za3Wxxi5Jp5hQQQ4cB354BK0mN28mn5skA7Eku4mlMN6ERisXRNDebCXEugovg/cDoPUp/I/Nmln0s648FBGvSBtUr+uwv59s/JQNV+H1m/BFfamhjwSHOgEwrFAknbdVaYdmi1GdgRmTJynApqpxXMJ/2mRAGUEWPj85a3w8PHKao6mSjI1M9ONNFF+8phwVPFtIxnW62ZD9zB2YLcxqdQMcAf5IaweE2aIygnX9T7VkVQgNkiqU4PFOERVF6aLqTHqey3Opwg8cJnnFOmtPAM8JIcRLcEcQEuNmXH1v32/+pt0WeECEnoqHOr9D1rzw2NQ5pZEnWbqYHB3RobRXh4XUzeic6L0uVostDQ3Nldv8oBPhJET3BjPPDA//CXrtzriene3GqA1MeLbuw7dlgy0GegywHH505td89T0xQ43jCIugC2G8mb8S2D55IQ2Zs3NN+mQWxQhuWgteOT8VMV9hK0GWvTYE0/G757sqFf+svv3COfzLv2+n4J1q6TO+UA7dL4Sazfg3KCxjaOKApQbOalbBkhtbACOg4y0MsB965naLLeSP2j/LiOMcLACmip1GzfBD8MKsKJ5mBR6bTY1104fD7sjrAPMj7fTzHWHajU7sGDGpED7oulw0HVKk3yXmEsxMskCOrcMFisUis9jlk6rOyY1h1j6Rvgw4j6BNuZcZr7KXyW8Ce1BgkpFB8KlaHLJ+iVWsNls28Po3ZJ6NIUeYBjmy6s7MCACWq5CuG4O0U7ncW7pteR7vqosfLVmzuBM/tPA/xOsaybe+AJ0GN6n5Xz2OUA/9b+D3segIiVW2ZsKQC7UgH6bQWR8GWG+hfA26SGoUfV4vi7ZDhrVIGrzt53SvLUhtFmQeBccUA4A8UQ+gM10X2UWfVPX04/vfdyqgIyyZet/M8xOvwXaOjSWps9/vePIMdgBQgjksZIhFtA0kDiuiF46gxyLgo1VYkyRAKjACuOQHLdhkZwKUo80CA9namDEAln/rXbwWBE0Usf6k342vlnr56NJ+rTmUV8Gq8HlLqXpab0E3oAGBQ47vfTcMxV6lSHKqVolekxiFHCUlMorFS9GeZ5vUJQFxGAVCKMuf1CnIKFQMAvxC/cBA4M/c2ZvXjOV79j6/mLX9nGo134nq61ritu1bqfl4P8jqMbgCCCWqMD7peH7XpYVdpW73+ItJYjEY0xdIhIVC8ovjJu0WygE1R5wY7E/v2bnlmJgBF2tPi/5vqClIkqHSxj6QX5Nb+HcoqvDYq3Q7ez2iX5IFSnBrpoxdlX7T2OoXsKtTP1fBXdtWeDEXIEtJEBSIkYk4eYWXAoKhzMy3tvgPPYk5PAHzqNQn/NfVa60O4HGTA6cRpEAnmn6FsioqpP+hu8F6mXskckKfGO6c27PNtfNSM2fllrc3843+wZ08FF3Jt5FjswmhK7BqzAV37bQmKPu+s7xrP1flkAwBkTXH/K/buFUGwLTfVW9wfNz50uLczfZN28G6kE8mNokZ9Dr78+p9eh48d6PHV//VFnNAzwU2n8HAOOJpoL38IHUd7AVL0eXgZ9k15FnFhO82aGv9A81wQaotbmB72CdnLnZV1vEX/uIv3e5A+GQv7ilPj3oTr0Rdd/4JVdlWxd6v1V6vqaWixiTnQjdw3URzdzFy/8kiKRrfRou4b8yzjYP/uNf+O6hqBjHbCHpI+kIsLTrXV21m+SRN4B89hUdZugxr94Tb02WtfWEV2Zar16v7Obqan4VROyQufpoUAS4YBTqLDIykqnddK+mbstK7E7jVr/LOIZwiixQl6SvoG7cZ8UwycYfv+cSvPnSyHZWSBQpwWBu71bXm+nY8BADDpw2r843oS4q7Ah9mEFqIEc/PKExMUpZ6M786+G8uS3aPH/Y/3qnJfi13sKk6PfEbRAMO9nembNMjYgh77Qhn5OC0stKkZvsLG62WYHRUUt6v/q5Q35+8ZmKBI0wQbnEDEMgQOMCcAD0WtW7Qwvmk8jZ0dKYo4KeGf96R+d1nELuIM5usXNrgZbycV0ySv29Bb4w+WooWLelvQ56uvf3QwAKwVe5+Ef3327Am4now0dj8VDaITHQsIos1E9BqS9NHfk+0OALLdPvD3vZBbWlShM1wLkg2KQ0a8YcU0YZRNvG6VITLW4rTwkbdUfGee75WWCQB+WVvsHcX93+hJhb5l7vsTVwSB6NuQMNoPGBTNPrwF+45sQZ8HA+BT1or7n0U9ocoNo3MkM8LrqwTFMwz3dkGpIZY7mOMyloEqLawsSbTvznN1bi8AZfJt8f9T9AMrKuTd0wvfCbMQJdBesP/bAFJ0+9BG+K48C7utAJApzVpx/z/N+ca7amommF5Gd6MCPEPraiIGjgiuA83JsGnhJqf27tp4rtkdFQbKFPWiH35i7rNncWHuE1Wwg9EtRIC564kJinbPU6Ow9lmciSgA9LhPiLtjmnORnGvudxpJH4jWAR2GezsjOGxV+j1IF7AMqtLC0JIUO53PgliSmQWQ0p4RJxb1eOoLQoW3m/6yVaYQkYwqyJl4Iop656WjD/lePovy5BKASb8n5h4Pum3BEDqEXsj0cAfzdzrE25la24S5W6mbRFkEirTw1JdDq2I5N7E5spI8mOLoEcVt6sup16bYHDOoaHyhjJk6XHZZIkCXB3vRWJai4aeulFxj7DQ8OQaAGVNdKfr+RZyIGSrI4oeb2eIRihuUdfR2rFyKYo4xb18WKMZpYWtYZ13wAF2VShv6ire17DDsxDYZBtMN03tZpFdehh7lZ0aYCTLuZXfcHoC/MBQK+KAmylAiejBZMv8mQVHxPiO9xmnZKdWSPRww/s9EPrPIJyjqqpw5Sgc4M8yTDAAlMx7O24XAw0q/DxSRsZKihbeDhvaziif039icR01YC6ZZG/ebYMzLyZdXlpGXl8sqZM2mLzJP0w1YssxtxvHIILYXPW08yWImW6vIk7SaGZEiJGpOxC58thCJABNdc3/gaoqi5W3Weym3UOz7plEYZbJ2Hx/5NO25MQNljoi0+77cG+5PwLto/SqjtP55nu0yFlK0cNtgQx6s31ADDtEra8aQy5+Um8uYljuVkUkfyxrPPIpMovrofmSA7h/bwXaji8qoQJVtVyw0GX1KfAF8UqwbEq2Wqdmwg/iJoymJ9qL7mWuRYJKi5306r1NYDov6rBy6aBf/eEVD3GUzrnWxjBbTNACq6tsZX/Ifj/2uv3ZIF+gw/MP1po7XHcxjwBpQApQWpo+bNjJs1cixJuVH+oKhlF3IK0rOZWfLnsrJ0mX0kwyZP2vsRXUcxg4roketX7R3hWAIFsAnpyf7VDZ7oE2sVNANzmqjrw23MDr57rwe4HUfegjwU3S9L48S1Tqsqk4sw6Zpw+xZ8+6c4qbOm+u2vdxBfFBVr8EL3879mv8y08v/tm+c8Y9d/9gDJDAbDy4jR4sImmWKe9ehxqD3clgfXSl/SjdlnPSCz2saNykzK2sidTjLuBHj6TKwWUyWLEOK3BZpJ0VNtk5tOlYii0RJkaYj04vrwJgF6SJk2lQdYtnB6+N5PkPtD7HsBELJKDsgbIzylYOh4R8bHUVRlWEy3ahb5ElWKWKfiOVvs5UvGSUl5UH44rKsAlVaBJHXNKtsVjJxwoMZmKU8UmQIuui6i+da85EpktuOAp1XGV1bVN127prF5hUjEJqX1BYSHQbd4qOdqXiWyOkjvWEmfsXdvD5Oqa9SFy9V+sejB9BxtElNAYHoRFoEc9A38fkWPLwBgM+2N7h9/ujVQ0Ac1aCAqEy1Ck+XD7sLbgHgzA71cCrbo476bMvidWr/WnXxLJ67WPaiawCTYh7ue1r3rXyaaBQAukjbSNsQcNfO80frAJAhRjQnHlNzhA6gg5BlemAwpKzGB46aKsbtafW1lsXb1f7NSn0ur4f+IrpuIsU+nNBWC7JT+bSUhQNIkXxc9Ma02+T9qMhd8Vxtb2cArEV4ITHg8INtwqon+8EsARzUFPI5WOF0xbgrOOzWBgm9dY1SUvpn8LoT3f9Zz5OkGIgd2eI4NVve9eYEKsjGRWzRbk/dxOZRJbh7VsgJAPj5s+yNn+Npqy1xsmxhnEtIg1b7Q9RV0FqpxopRQ3BQo7cJoxFRsjuUkQdskIuOoU2KgRh8mfa0tFuctdHZTFwxM0zeSHOOukXZ9318cHtgVvez7PSLEo8cl/KY1ezQLrmuD8sR/3WOgwrBoKKhjAazqVJNPrUH26TWwmjKopR3CGSBSpxiJQZT3eKhmVZkL5QEm/GSdaifo7qa6rrnYbNIBAGquE/Y2S5jpW7LceYRijAuF+4mQ/xbH2x3RKoxWDsCNFWWuG/gDw7CehM0ii1K4RlHAFXAjVPsxLGtcJeN0RY/KctNLNpJe2aqq6eoYzrYYWUQZLRqqdJulZdlGvILbKpLTBeykc4gC2ZDA7+fuqDq/W72Z3sgOwNtUG/KRpMXpSjKhozC+7dTjMVxHeiUbFHWMu2jSkBKvaMeob5EWfPMVAlCTQg1uAAAPmnxfKR1xQIaPeEFuorXt4TN8nd9BIPu9I1GgsNGrY0YTcBoKp/691KAUizGvc7oroWnhVIxEiiKekzkU3vNESQPwp2NNAoByNlfp/HxWX7BLLGnrmZPwSp6QbnNctV7h4Mr6O2Q3jiirJ72GQGHYjUO+i48P6AZwgAmRd8v9q7J61cBAe98dLcOALR+8WXexhcHYY5OC86AdIF2w19QOmB5561c6g2M92uDVqOxZKyPB4FiOAbPzL70xhe6WAkAPHCtv5m8wQ8h/7QZo50BWOdrsif91j27MPYxM3K0YHBAi5IZyjtWTDv05onoLhmLD5ai2I56+8q1j763b+Gw3m/61X4IeZ3j0BuGAORUW2GcpZ9fEE93+pLBhTMM93aoXILUEO+fCioDNsV8zNcXqr1eiMfRDL/8aE+BoP/EcSU3AHe15NG63YqfgSALAjNYBs7QGhhBCsTzuehqimI/WvU9Y1994wv9HMT/lxr/pEhIybaCNwgACXNNm+lgjEGYvY6furTvfVevY6eUpkpEKu+y6p1IPcDYD7jU14tnIXdbdvIt8f8p5gFVwhnc2ku3UcB2NftqvpLsoEqBOCa503v1LWf5tj/3PXP0gFMI6bTwUkVPZQwBVuwHX0ucVtfO016DAFIkb4h6rMintlOVQNjKm0GZKWsCwFg97Qvxbzy+GoR6wG6Hz/U5efz0Xn1r18MXMrcvsQCS5hrm3qfocc+KhBIxHhDOxDLuLFqEtVMYfrbnJ0ScpD1Lvpkg7mLEcN4DQEf6lXRfi1utUjDEwrWPC10PXex57NRaX3rP9GePZCwvszCQWs4o1w7OAcYIEkzEdgAGXapNaEzLpLX3SYl+0DDZro1Ul099YYp6bNcwNymq35zhRf/22O/8W8d9998AfCrjUCu+pZRj5b9K7ifjF4KQWegBO+yezD9wZaZzD0536ljnfROOSVmJBKqTeUTRYZYjLFsAbyKmA8ApHR3UWquEFV3btNSIC+yAbIvyRvLblOv+zWHbUcFFl+mrXPzWLK/453O99h/M/8a/v2HUyme2uUs52jLvbun3XMvXXNYLyvnMmV8QZYIimsKKm7NrpsvBy71PjE93+v/TnjyWPlvn4XtWnsOsbue5h9cRwJeI6QDw0lEOulm6a49OuOPkWH4mf5ihM1srtkm+1cXZTswwemJ8kXM/X139unbfVyKWvxR38P/O+JJ/0+DF/67e8/5vjSNfUa98p23le9vw89/zW+66vnKLfUDiC8+wVP47MrwtrgrC/3eu6Xr2zrnO+671OXG898nxgoNXPAQsWYe08X6IeRevo+h2dByQWA4OdZZFmS5NmZSlffKinIy1L28wU+9kPfQwZhwzGtu7qIJ1wDS9y9hp9nxNWf3GNM2er06LXvkk9sCXove/jTv4pejlh53/XuIPrsgPfgt+vL0/dLervPoyD7orvlLGN2VbVekBRPRomduWOu6e6nb4bEGgL8yDTkKqW1h2sxxmuU2pO4BatB8wYjsAsMpMEyw2wWATjLCUVZEiH1VEj1MHa5atjMBOvvBttvL5fvLKd5j5N/KF78gqb9j59yheUXzw3ibe+5q1v1qM39F7fxWA6WXlfep2gKeuYh8VnYEOoBPsLXYDBfZmEFXdwNzJai/zVpb9LHvR0URsB/fzWlqn5/1dAIBbLvfjWZ5fpcdUXSZTzIV5QgHSE3SzuBS1uom7jdchdB/PbSzb0GHAk4hdsc+1uq7gzU7/1gxvtAM8fEkrXGI3ncSuYndLgTydHbKRRLfy7L03zH7mAZbpiTEqfKdjZ2YWAQC/eHkfz7ZSpadVneoK7uZk99JL6AMzHba6ltG0e1Y389xxIHRiXCyKK1+9TzIFAfALjK8+0yuPnw/i2KKA984Cbz0dnAUUyLLYh06h21hu5rmT14NfPjLmRDa7OrZymAAAluczvhpfPbgbwwWLROpH1WVetLs5M1gn6CjeyWeybOW5ndenKP1BdBKQGBOnxLX56AUA3BLjG+/wSjet0mnv9QPPfn6k+Ha9sFFviKZ+/wzC2cHphWUAokPoXrV/gbp4Gbp5ZCwJk50F3411VhBAhW1/1sPdMdzKULcj59b5ytv7nDqWPlu90j969+a/dUDrvfWIyC4e/zykt7YiJdEt6uL5av+Od07GkNjh2/G2OawEgBRpzuH2BfcGI+ic3/+ztbzoUffyipHW5f7Wx67pb1/t3wrVK1rmDAIXaZyshRLoBuv8s0r/kluIGZGkHa7OreSzMUBFa0acLOY+fOXcw1kesTbrS+6zjwqT32DD//v0n/MLXyq+lX6DekXp4g9f/mdfYSpRUl28wLL4EsuuZKyHoI04x6fjKZwSreyWjC2MdqUSf1/5TopbvfALK2+De9tbK8+SuKbrKBDNdmf4h/7IpqKvdcqF1C/6ITpwemBFIvon1vn3eb0BMGI62CiNktI6U2eXShlYnS8y9CW1pbaX30zWfOjBjQfbbz1Z06Ri9wSvk9p4NlOaKhFtIA//sL/oDPxVk+NBsg0OrU9W4Udt+8dMcCpRQumfYZ1/40DJmA0lh957S2upRGydpKwyfcHcityi2EjW3DhZFz08ZojOjuQgQKu+lZdhwSlEBtYv4K0/c/H+4PlY2jfgeIz2p8G2+IFD6wvCvuJloAWwhejmrfNPWuZvARIUo9Gg1lEbtzJrqy5KYnozjaO3KG5Q1CmvJ2tj2zf+BkkRBJqKqzc9gYh8SvwEvn1Ffkplevl9qjdgvQLbVb1e63Oq3iD2qB8Z4gWAszLSBKIkyz22zW/z3AKYsRh4PVg6NUZz14Ie6KgcRk1a82b+4gfLt2J6nhkC5r3GXCPPbHY6ezetH27IHZsUt2GUAWNBZRXKTVqfh+0C7I/TdgV8jZCInF08W3BuoBPCICVY9qmL96uLFyExisGYjKZY0TVBa3zU6haOafuNP+E15duNGx+CoHNoYdsmDCLEr/JpodeUEJpH2Ix0E9ZDl0iFwebkq7Rcg+1ppD2I++SrOjRCDnhmwjmDbmAqEbrdOn+/0j//DyVjLQTzWEcs55ajVtg63VkDPT7F9lSXG6CoJ9/BdiuD0JvRqimLBxAgCvut+jqjHzBooDA32AS6QbAxoQQYwtAvtjxHx1NM+xpu/xDNEUDoAWcknAPsKqqAxt2iUl95fX8oSbEVffssS8uz5X3a0Ef1CzMDmgtU1/rHf4btoPPKIPhDl47TcUGAGCmLvqTwbCRERJ99XXPC60AX36zw9DTmja1X4XyE6f9D23mwOcI2oTtyJsIZwjygiHQLPPcq/Wt5PcCyLkkxFQ3opBXckmiprdNhsy1lTeo16mtTXk+2G9vlhwda1S2VSBMBAF5Vr7TyASSdpKqDH/egX7kRYevo445r5qt8TvuTTHvQtV6hch+fFY4Vc8DMwtrN6YQMk0nQNYfj9WlKPcxyDB1KUCzFac21JFtKqyiRmSlMSo+jOd9ffGe2HT3LD4/shq4yGwCKzxX2WfRZzhhgUY0f9iQ3uAXcN7r+bYCdHJOtie0y/oT9vP6JJ/w9Q+tgFx9sLWBaYVqYI+6AZxPLG26d1Z08N6MTgEkxFIMZaGkL+/zTtkjWyGJmmGo97endh2LTeiQHT03hxgYBinFzn9r4FPMhVJBqK6BX6A9WnsuYXdgmvPHfGlyHvEvjOth12p+D6zptN+jcgLYhQm5ABSlNWPCrWBbBgZOtSmfQDasjvjz7PfLanOJuPxzL/h1/57EmUgxFX7+ltcMKas5yKexf/4U1F1NfSLkxepwfnrruLoc+BACKb3Bz/1PhRUiY6jr4dCXCqz9JCSwTgvAe9B7qfXru03Ef7jUG7sGQ62V1CiIOIqo8LsSlijvyGVZ3+BSCzGFwhLn+3dH16BhgJADEUszH5qfG5u2QYyXYUn2+iFNTXyRvNoIqwWM/hpCVgkB/UPEun77xeck6VV3qgR5fgMdfs2UHzKJWih5r6qoMJgUPw1SAKkXslpFoS4aJ9gCeBIDYihztcc1pp+NZyW0I+NmOqMeLemw3UwTPDckpdN8hoD+JH6D8nMT7/RMUy9LXAlfnc2p3YasAv6Iu/r/csLypDJ6LoECyTknIWtrB20EEgJDS7+a57bRximk5sSX7Zmxhn2wAKL5Y3B3+ZBE8t8UGZxB7guKC4a1GMdC1Sn3yuwMlim3pa27fPJ7TpbdjAfgVt1bzb6c9rwgeXCDODN1iYYfhrWA/rztZ7gSyQIViXCa7r7H+p6fgeTAAeJ2Ef1nUo7aEx3KQCfuKd+cFZR28HYPDALiH50F0QMZanGJc7vadeb6NywUAjE/4l2LvHDMCj+0Ie0m6A2kWdRju7byY/czbWG2SsTSJYl1yWtB97drrDgIAUhT5lFp/6a3gmUdJF99uL1liEBR29HaByqVmvek+ogyvjBWQTbEvU+nz114vyhO2e/y6v027NqrkCSi4Yb7k0bLBe++zuPN5lzr8k7HAqAVJAyJjeRLFwLTQtbKvcuP1XgBQHHeHmn9jPIRsEVVzscVsRpokQ0YOgVz7FbwBAn4CpZH0jTuDw3Zt0Ky3KsqGLFmgEKeYmGn0xWuvTytedkxP/V+nPQvubyGKexAbSAtxILvfvV1+i2MKcZWQxTUWgkiNbl/QXl9YgUEg1Ib0NmwUilKWUQLKgAMoxcgMrszz6WsfpQD2v6fer0/W4i6nkIFkwcFLuiRuDJ1aSZ3uBkFa0CKoM7BC2KGwg7KDqmhFRVRFURkVGa6M8gjABZFiaYZPxT5H7XXYzh/zgDp/uCq3MJAJp5V0hsfjYggG5RHZb5Sd2qBWbwJGIysCxUkUu5PTtbIvvPEaDuLuWO0/AXdmwFks04h+tCRQOkZ5Z/gmN4SGT9SbWlHWdwiqUmzP8HWzz1d7zctBzD3q/PFIkeuGdZScIfIUJ21t9Y8tEQfR254RpBTzM9gYn3HjdSYc3GL939zvd12+5AzgA+yr1Sh4Hl53f/JiFAv04K+88dH1xIYDwHq1/2KRjyElF02dBplRLJygtXUpdIjXpzK3AlWKCTp8WfaN2ZJuJIAK9QU1/pH60kieS2zirJaeQv8OrRVT0I553ogOTqIYoYMa4Qw4g08SvUwQVZoLIp+Z5pzHp8dXXJADdQbrsEBgYIfWyiVhmWS55ZOBFUApZujwlGjFtOZRE9Y26eD29clalOtU10xXbD6PVOXMf+4Ke8ETFjUo69BqlGaemzD7mAND4hRLdPhBSbpAF1yqPe2RXuJ72TopmzStojeL68bvyhtmLWbJjyflIivBTKQTpVyVQ9JSpHwS9U3SgXEH0A0EgbwsmRTFGuVl44bvlaqpuWREXsREkSGidxFjVI8xY8gyZEPU/pe3C6F+mf7WDramNgjpTcgojigFICejEqeYpdMsgsJoAmArsxYgX4gAY+8yooDZDgLFVN1zgrbtf6//vf73+t/rf6//vf73+t/rf6//vf73+t/rf6//vf73+t/r/2373+t/r/+j6a34QQMMMpBJFkywKQiAAat1DhmrorH3KLOAx/GBi2wlW5GtwBVsgQt8xAMAMVpkPiZh5mLmMfP9j/97GY9rl1RHDJGUR42XroKcZiJKoizAAnsBHyqA+AHvuGSD4zB65HQzhoyutqEcQOkYFjKnCApcVCY2lEqSbJbPciwnpLuUkJSskczSKAe5bDonAPeoQZTFeTVQ235TTXumaFwwwg4h5DGjrOUss+7EnM0w8/0M4wzTjNlMM5Y8a+nZAdAJU0lWSVmhrFLuoammXJpqIVmVYi7Zgjeu9BiJIgVBVjr736VWJAvCs5JFQUayJtkYkiIixIOEgAiSQOrug6kJ3YCqReJAlBE9RaLBDDRRHsujvQ7a5t4zKFNTpxqJZwAmj9XigjEhgSUgzsWGSGjZTnIQSIsG5bp0JMfauiZYxXVxew4NoqDvGYVaNIvms7lZfcVbdKRWqQc8gKVgnmbI6PqyerL75Q9myHtRqoSCnp2t+JCIfUWvLGYlzXLKhckXu6Wze8BugA1JRrIkuGr4tOCcZGoFSSlFdR2HRBkND880whlhtAHJpZHgyAZQvVUOZbiucS/VVknIpn3LUVAa2hCHum7W2Cyow2JYiQqlUqFxUz+gvVZgjXiaKJMF4XoVPe9xcCybU48b48lZSFDlL2rKyh+V2V1aq8zm9FnPDtfTc2mXFntYwgFPr9nTixYLawKQA5YEkwanDD8qGBcsAy6FH/Eh7Yp2MO9kGmE0L/1tiXo1cHqmulGrqJlacnsOhOtlqIX52LxhFp6aiGIKBCRAQzJdopblOQtbSXuOg7s1NKtOghNodtRyqujsguFL5px+LLMrqSG9lWGMK8HdzFyavWocLrXj0uZCmXAmSdYFM++r+x6D48CCxKFIA35OF2c/10HmQaa0JIRIvbmxXPqA1tYIzamqGm4OPH9tzO+OGZuZxUPNSiU+JuzZmp2JnZ6nvRsCYdawE9Indwugrs5XKgi+zDxb3lBKs671srpeFMJM3Fz79aVsyx9a99mFsRsgI7hicJ/u2wwujaB6mXgmzg5FT+fsQpreBZB6UT21k1aMW8La0gAIMhDB5sYJY0dnNZw2opmEx0rZ1CosSGeKdUU1BJuKM7vrZMsimfqNct//1u7B+zQX+FvO/bss/gr0NVC9Dd1xBvxnYe7fXVvwX/K+S7a+pmBEDnCAdcEl3Tdr/svXjKD6i4QZ2xQ99/YZLfuNnABlsCOWtsWjRLMAQuWRRyvTGbW8UiMjK5fqcJRviVjYFrGuVg1B7/EQp3ctKBsWc1OzsQ7/cxjwH5jvz1H2KMQcVK/1dbfka8X5/ixb9P+FwDXb2HSlNTISlRTuQff9Ojc9OFCl+g2EObtVXszZx1R/isiM9YM54DXAM1o7qoaQy/ddlRbnWmqL0dKcjdNpOXuJRJoGwWfZMrRY6BhND7pDVoTuYuA32e/v6H0MN0b1Xl93r7vf322UP1bWVt0xkWiTXhU+bnD7Em1U/xlJricrfhnXGKCROMkdr1/y0yQ/XzIagtfTqlEj6kj7DpTeBHfphEZRB9oYHplhy7pWLoezynX6JgLPo/j/UfYI9A1Qg9TvO6XfLA38Ril4oyrmGrb4CKkZg6OCC+OpQQImo1/llSImpMphk8AnbEO4IvFnIpuGK8ETdWpDrSkX1VKbcTqvpbXw8gyeaqFO9MbJmOBzjUyKDZQ/gZKvInAdzdRAP7nyil38lWLlBfvGmsOTAvLCF55ZskoN9vtCg4+KeFhqIx6e5ECwQfgzMK4KrkENdOA2q+iBRpdLamxcptpYunGCB79+B3S1Qf1dMUa7T+9T8D9LsQA14L9eealSebGir7kyNRyA8xlCE8B8OzVgrflrcPghvfxTajkVjpXe/2qQn4dsERqQGu70JEqyfuUSGqsyokSaCs8e2ZnWmD6wYHvU7rHyIoM30UwNekzg+WrlRVtbdWSibhJndeGpz6AG3WbEo8HhJ7T2R1LTUtW6PdlHXz7GFSH9ITXo8ixKYiZWLpkZdw8ZGA6Pz7E0zsi9VUE+OXRbg9fxYNTgHyrwgm2sus11+eDXBRYlFWroUtdC7beDg69IXWyry2duTvzFkmsRfQI18HIDMskgicyowe+qT4UhgoPyaYLPuf/9N7VVyp5kgmLu6mtqbGlzreLH1fmLJN9ODf879ebXofbLRjkN2LV7+k0Ll4tsHC5KDb96rDUaKIW5CkZOGAxRHKkzs5zbobHOMWSKYqH6mrPzWn2G5l9Vek+KzPC99ObPofbzRpycVJvjbRS+7OZhksywWh+mS2HOzohGCGJ5ldJQ9zAIQZCCQCbJCrEQA5Nrks5p/o3P+wO8msxRqqQ3/9MGXzHKqbaavneT8IotW4NklpVnL5W8jGHI54N4qKEEgSMI8DGwAFLJNEXFXtlQDlEdUPi/fg4FeLnghEkQUNSaf2nN10RcbK/uyTYlXqG4VXGsaQRkQRmkLiwibfVSiKgM/RQUqHKX6pS/DArJRFkLZcpDj6ny7X/N5yf5/cLvJ9MEyh8aar8j4nq8ykm2KF4FslVIJjpGpX2lLfskQKtKiKpccbQuER3TshOW7TwEmWqzdadl2W5OIWo3OBLg+X6eanBfyjxIKqs3f9Wan0ll4kTJ2eHVw83AsWaCMW00WMrys+LN1wciG8MlmN+gQ6gzWHeBj0Amq3Zi223wCSfHlwj4jX4f0P2vFJnpLWntH7Xmd19KErzLNSEbRJJkrt3QNRoVkKyEaoV6UhjENlQPG9l0b8u6A2lHVZ2RTNe603QcttSp8bohPufzTo2fSopkri+otb/Tm7ukqs+1AXHdYhCQyerRhbKJhmRFbTOxGIL4jrmkmx+bQ3Aco20vyHwnOw9ZaUdhlN/4vDvoj0lWyGTjIo5pza80nX+4a7asQaabRZ2jcgKJihxzU107uwjhLK5/9IoPOHgMb25CpIzpOHWSHX5JQK8UnCPTBRy93LvN5s/rVv7EZL7lWUoiFgFJytnnwPl3gxj/qCXnMva9f0tdJWlG+2G7v2Y7+yJl5WaQmg+VydmQshvVukRNCEMunksbSFJisQDVEMSYKpvjJfozD69dMWsDcEwIqBrcpOm1zrO/cr+0yAYwHwNjy/WGDeZ2nwqPZUbQIUMyFpCgyOx4zn92UaIajNPm+geFH8/yhimexHwk1zQ+qvFhNr2a8Qqkn8Fk01nQ9Rv3rjnc8bf+e8qMyvMoV/0kKLNh/hBNEGOqiP+nB/YbA3Eul9WfT2YebNMByga/DfEag5vjt5X5WuzJbEJ4Np+bN1l3HWaS1JpUzowwfSoTjZGcjP1ENjtCosRv4H7sEyigzVH8Saysm/x9mo3gbIj3a3xVskx8hOw3IvPVeBCTmTdbN53bi50kkipIrbabEfJDfhTLAlKTY+gYiBTE+Hn5v324b/6YqBL3Sln/uazOQcVkJun8KsQbBPfEidJOIOv1sO2GueiYW/HwZnLbYYjagKzUhilZZBIrGSQmKvrUyZyAKPO3cD/6CfcLnxDRlin9ZJbXQ+4k5rJSiPfqfP2liQgbdHgXOrwTk01lnmzbfG6ucJiIaGdS6ykzQj7MUU0mMTkmnUhvJUrPy//z81/4/3uI6JavhPVfQOYHTWWSwR803vo5VPVhlrHsgJnotraZ/VvJEara/sFSOVOqtkotFpISuT6j5qezixK1g/vpT7if+4TaGBHRZin9DDIbobComUiua3xS40t7q0bp0PF9yH4TzGSAa7fqoV9fDe3suICaEYZQUQ0mKbn+T6n6BFHmHxj3XR//XWpWle+4XNYOUIxrJga3hHiHwX/j1VDuW5D3IezJROakfWs5dJjqJn3OY5mSBaU1WamEJPQ5dGxjTJSel/uNZxJ/bqg6dn3kfw4rW6FkIpK8xjc0PiyZoOrt+9HpQ8h4JczDR2D27J7HrVTjzj7YlMp3VkfRkJBo8XnD/AGizNfifvBj/nfeUAMOaC7sn03mOsjpqHkITmt8wOCX7TU8SN7Hkf9JTDaNBbJpNvfeb02jpPJxM4KRWJqFSUhOlOxW08SJ/9+H+76P+bsGxyH0yslePmv9qZpG3OAfGu8T3E81Jws+BesumIVA5nXLHNlFNaeG7MyUbkwVakelkpHSL6CT4h6F8J41aN2CDNCxyw+xuqA7qAz3mw/3c59Sl9edsRul+AtZfYuwYNC6wvRTcJ+hA1vJNGYpcoZIvifFgqs4sJZuwlpwxXE1vqXxeclsLRyHUPA5HKROgCBJRi+jr2ZGOxKuFWAsvTTAmkbtTbJRJ78DQwtdVwt6LKAQodIIxITK7lhCtrYSDsZE+8QzyQjasc4aIIQG9o1f9kefNBQEnDKsDT3maVNKuIFvHrUe1QcnnySVs5Ar/uXsP+gTP/6lT372yw5yL7bqH0p9eM7QC83yHZvxW2L2cJB1Sps/Kv1prpDMIRWqbeAF6Hdh3Ys6IRELb3XoiFMna7brfkWvGlmb/6zyWkVPq8USIf/U4I46pSGxNNqZV+H95uHuqcU+Nc+JGQndydXp4xbyBHRQ27gB0pFWSAkQYmDyexYItbkTGucy7Vu97E+O5jHkMmojarPndSafttnXFaigK/0DB1SMK6OCM3jmzeGwmAtUyRWS6cSw2tyY7wrevE40ErBqyajj3MBoqg1jEBSgWsZTqTqlhQvA2f0ovsX7uVsC9aMohu6/VRySISAjuimDpCOtWSoThEsDpSwlcJ/L+44v/eNPjnt0FVWLbxyc5XHvWeQSj1yFakW+yxhTt1oDJmeYaSRRE+BjdKVqE0YOD5FccqovxXcovu0WFerwcOREoD6LgIAGHtTFSUaykMjyU54CIDB5fu9rpftEto9rnpffPGo3p5DGZZNIAFlJYVwdKLJIP2cL4qmJ07cyRfSXp5b0wSm8+U92S90QIzhblx2xgXCQRZ3jJCNdkwe5MQ8CaMxFn5vmM9c8JrUdNeVcNstjIrFCewvVWruLR37kiCDBf83oqQEwbgNkRiYX917t3KvwftsdBOfVwqmdasXqQkB7dYNk5ImyDJ5dehJ6zihzyf095vM6Z6Qsurw4SJbjCGone4RuInQLEaF/zdgKSKqawyPN4yOTE9JDuXP7vcp+bohlr1ftVKAB5oWAdt1mulQkOZbLBGbhxvW1o0mmkCNo7ASamXMJ1YzqoiLnbKSjfuIArCWo9rIidBsRQtJMo4eXrFRzQ6gARTYPWQHO96V4w/vGDX8giuD8IXMFFQmn/JdUSUTCyTZVYNdi10N5BiCkoQ/9NLaAqeAgcDSbES6hWvH9g/McbThdFFKSjeSw2tGfDd5AZBAfZ4QzYHCuCmAy+sdFhkNe2KsA+HMUn7tOhnpB7lMAOWak2SGgfGRJImLGy1hMYHfThLI8ACBiMRN9VX0qukc7xFFdTw0X+A+mRhUAW11eFNqGAAbV8fm1O4gMMYaPIziWIiJG6zOlIrTVVgXZ78+5rkaIc+UOBuZSdTyzQz2eeRhDgsGA3CARMbMcDBBY2Gbj7IDWOBV9ZZubHOzzVmpyAZWj+lETBTFwJhKFlKQ4clgdjDXoq2iODBI/sPSGZJIIIGMA5aUIGYIxFIT37X6uq++iAIeTV3FjjhEcxHC3FxuEY4wmS0RG6zVaYE7arAsOgsPSe5TJBVQRPzlqpiCXHyIKDzCphepobEJfxx4jAwhnFLF0jhG9C9Jx5AhVTx9dkL6u26lObF9HKWzVeIl1v3SsHctmDHNLOCbpIBGx2Q+b6CmIMBU54s3GhV1Bjbt4QSw0gScxGBGnuhpbeGmZCJdkdT9V6AdQMeGJ4xKjE4nEq7RJcoixcphGD0BBDz/cZbVZtModlHfjslgkKNcg2KEOmyfGQjBWNlQiYkg9HDz11U+GWc3RuGwZzAWgyp63IBxs1FcMUlTnZmk0h0twweAYUK6ChJBupGRwHpBlUB6qKph6KKCNEQmTLYwuUN++rqJZgyiCwWEetlG7W9hwNhaw6zcLm4EJpsQaJCKmYHVCWz2aYs2uz5z0me2TUqQc6ZRkG7rA70ePUWzB2MAnh2tvgnHBdJXEX534vkjdfUyqRnBWUuJsToRptCUU7PC+Lhqe4MPBUVflYI5QlR3ee6xdaX2aO4SEUl4uEaHUX2hfUDrjyC4gl9bGhhy1okSEXUHllfUYPnmPzeFqN3xScLwK7RzVILyExG6cqkrWJVPgMFMHhbu8QK6vH6IZHN5Yt8ioWdn0FGJYPdihBuZiFxGKZLQYQo8yFNhMy+iG4MJKah6V6jGwBrzFg4SLJFcNH5NkqwAeRj/iHSLRagSXr5MzCPjDFhCKAnV9qDhHe6QrOhaH8q6mi+bgcSDHjJgVEptzypnQXNgUS2Abl6AHiS1wiClhkxQEJwUXqhCjm6lPeDlVpf100g7XKMBwbaBQgShuYH/XJLC4iIOjZJcbzYTJyAiZ9gfUzC5w4LwxGtKaPqxCHjbgWtSIjXMJVXHFgrC0TkgMJhJg1+UQWDA5bCnBacFjbVWW5uwDFaiqZEEytz2kgcI9ZnKB0B+ubRiiHRyWd6XbmoMBQ1PDm9cjOwybnWpCIH1UkIg87epP61ld7LvolMgjuPKKpGqTgsgwGaKQmBSvAxvg0HcZNhLMGh7fZRVAdkrVnk66xGUAZtg2uGiBBlK8uEaDWs4MR9l0UCyLBlB+QB7NHgvYTW6IORAShoyNlYisc06ZPMlIi7OvUfvDq8NHBV1D7UVVKsjYDdxB5qNiRzpD5pEUV3DER5QCBRu5vQcAynXYtdrhEOGb9L4G41UoUc2XGlzeHsOgsJ/9cocUhMS5qC6LYXCcDD0+9M0BpERpVMfnonb4A/c7WRgbaJlE5JAoW0dgnDbuDi+L0mllOhO+XO2PT0uZCsOl1FzUclRVQVZXkAv+tW16XH6O5AfA0nMJJ+QrSKXzO3oWMFQwxJD42kfUQemwLxDCR7sVPj6kSvWCSSCDyGHCR0OlyxVksGsmH7hBdw78JLF/DwBm15GzEhyqMTN2FIYSEZCKxIbVBXYqOrP05MiiLErFlBzvyfMtCNdWUivutiCDLucCbnaW3nETjhSHKA5lbGVuzYmbIaCCI0s/oskFG4kE2o5ch1uzbANFcPUjCK7WIv6XpStcSIZvzE47FWi4S4a9fHV3RtdCPzuebATHoYedN4SEELhclCQioRqmhcCe/HS0h6PwOCuFEYbLqcPIigKURpArzm/cytTKEVMt4QOsg2Wc6BLduanYdzgKDi/x68hcFy1YEojEgfU63NRbRwJwbsDgeLym1W8E8Yym8AfWjVAB+g8n8Y5LDhyG7gZKCbNzNp7NyaIgiNGxTCKCPxCVEthIg53bkbtvllpV6dxkl0C3Tn8zR5XRbyruXXLWZJxwpAPZSnU+jy+6hCPbmHEXu2C3gtHS8detHRbc1E1FggTXhI+tXpPgIjjPBIpkJGJVAAwf7go53pIJ3XPhbjPoVoRQ+o9iIBWp78UiJCzBkiOog+7budWjmAyuyL10uRfZsmMW2YGpqvGhan8249aSH5R/swOfWbZa9BvU+thMrbgcHOdeQRV2KnUBEgdkhXit9vnW1p2ICFA2OPHHaxgluJAcHZGJCQg4N5zEuwNdUSv8KY7cEGoQzcdCAuhXM3brUpE6Fm+MROl3UcdRezgXi5KQK/5P+pPlXRbx6hyA3SfytWp8uOg3jl0C3tvC2GTpo0pwzM1knUFXGwUXIgnAWKGtVl/BhthnREhw3vCx8atWI5jbJWJGZlqC+jj3Ym8IF5bW89GWwZ1R9DA1mACiUMcFpCIXaWgRJErUHPKi3axz8RQNuJIKaY9dyoPFvdPrOsBrP5ryaPKDe1tS7vzF6H7ORYatoipU5ArAv1OgIFmvlf0gUJgcmV3+HcH0P6/mbcCFxSmiStVQpJw7iOJ9VwyqE0xwC4OGNE8QwLCHhVSUYHavhokSqJcixzk15vU2dgkMW5f4z1QvKP59PbMD4Jk3f2Y4e1TqIy55oVJXJJH6lGS+Vo4joAhPMjgpOMEYrSIpvJbEd5TIlP7g2nKqP8V7JN5zxfNEExyPbUIrypkoLBBzhJo0N+7EbZMv9LiSEcxJtSkkSuRFqBfaxJmdEkgF15w/4+RlnhDzZnHv6vYcFfCornegUnXT5ASXIk0kma6NsgTbHnxChOi/GH6Mqx8IENFrCdY5pAjXSOonTlG8IvH+i7lgzE9UuO4kozlt6MyNPa6Jc6TBzKoHt/Wrz2KZdKQBbkUFUaIOIC8btT9n3vP1JrsGtlFpT8h4WvTbqvmRvn/BivW3/Re+rM68iwRcAyQPurcvrYVtPw7r7xGpxT7/iTh9RG0G59G6eKRiQwOp5QyJdyk+oMgFcSzeVTvi0VWZaBicMSDXpcFRaQN2v257q1nCZOlIpM3txZsobUK9BnkBJ0IHXgiu/j+Zp6Q+tJ9X53MiX2PzAliHfm/qo9TPV2suLQvBtUgAqPtSyWItXCeBDbxGpOKCc0MYI+NoBcnMt42OlELPWgvOvPcdouCBulEUg+N8pEcq9/LO3FhyXFtyhPhozlDirtebzQfS0dJjUH0Tgo32SjdHegsLpZK8btTLRiXdG1SXLugyWMf+Rdrjss6kOCjhA6LekPKYP1vp4EhLX/7NMk8s42TsHgn7i9WdhOBiQBjtccFEvAY2wK+QC9QtJckDy7us9jrbqtBtSs+iavZAkklp3DdVlZSRvESrGfdEdSutj5mTQPcGk/iQxHsumJzAzJQNR+mc0WeWSMmcQZKacpm0hcNdy36OmwbNFOpEEhLk0dVjRQhAY3NSDXPUBh3JQgIBdTRyaPz2Ua260wfvJZA4M4Ichg1Ahbwy5SLlnlTVVFXKCnYBncBWMs8YM4YsQ8YwzZS552K48ZmAguDKpBqcD9iZrygqU/d16jTxwRgdSaoqWRRckmxUIZ27df/vS+kHVMVGV0kZPKz5n8BKNUdTlOagThTAt8m6c6N1r4Q1HJS5G2lJ1m1MbTRkBI6mbp1FcLq0sZbiRsGesKuejD2Pe16+hg+kpL6FsCTbxX2hn1XqyMaNg1CpedQbkX789XOkwLMldDEk+uAFEOHNfxZdwaToNCqFZ+dKtjIuHxdGwb2ABwnu8uWqO0T26wqel5R0S3OdaORIqjYFOPFqJHO7lRQJMRlEUCX+cruVlKtBLIYMq9thtlJHNtAf8jlYHUAkxdyH1FAYx5TCMYeB5c4hlc4Dx/3qsRi4ZXJdHm2cpARt7VTUEe7zSPIa/Hy/gRpWTSfMiyR+HkQ9SKSEnABSQE5yub0a6y4n+40Fxz57FxT5VHucak61x6sJb5FTm6i7Zsve6k7B3MbcdYpwuHHgwHJHgdJSt4yqF6qlJWadCislFhMjaiXyylE78TevmtMncEkk14F/NfOgj399ydQvrybzlcXMVxQhIcx6UH91zC3X0VfXbVWzhz3dYaJeCTXwcTUBiWmrsCiSSIzum7x9fHbUpapkYlwY8Qsl1hGTTHTcziXrkktVlM7NfXs+7UQlZIPMtDDrN1u3zpctVQCLuYW596BkwjGhoTNIamKw+2mOsAiBOhJ5xcPXX2ChRAysk8ClkjwjglPNhJ4JMSTXH4qIPK8oZb2mOMawmMpf3oqHNl83S0iU2OmekCZATChwT7VL5VIT/PQlkS4xouaQd6FycNUhysa4EOIPl49JpjqO0SjJSy60k2W70/GdOecDdsgGmWt/6rfYj52WCPDc2K98FzLhC87IDATJ6S6LoTVZSYRAHfc34KEqbOroMyRw6SSblzEXeuMnklz7NyBkvbaY/fqCqNyfyWj2bCt7tlaHdEyASzP3I42AYUKlM7FaDBLURFrO0iBGVyTvGHy9Ii87+VgXQ+KCiB+YTHYco+XIknP2/aUO787bD1T/JRgmQ6XEtl4HF3Aj4GNuZ+45KJlwTTZzmC5FsXArs9bBxIkQqIPk0471ET37tdClkVw7fhWaDe2UkcDBbM7bzme9uqin7I/M1sCYx62z1UHNzTwHkfqkCSkwW4hxkKRm4/aSySdCVIIbuo7H5XKuRM+9RjIwyHRHAi0ZL3Fy3j3Ohqu7IPP1OzR33dmvPg3dCXjJfGnMEJvZcZCm+DpRm1S+iRB6t/wp9XM//PIXe962RpsP2feE8t7f6jyWCfqMtG1CP1A5//QC8y95sylhQkfMzfIIEtWh7dU5MpH4RNFlLBvXsPOz53bTEOepr8F82JAd34kOb2gQbgx5QnLJfICQ2r/GsnlbyeLt8xLQgPkoMWcsTpCs6tXOthAdhZ1Y17L3sz9822c79/RdRPAa/7fZ7DXntej8XkJ4JV1MYcEZyZzZrKrk4x2b/7bNfxjKrv7CBybNZvJsbGY2ULqCTOtq5xaZs9/gLPYLVj43y0COoq+i4jJDdwCGybjPMv/DsK2QgCCjH3EFJ4A1c0nwHLNv/cK++XeeB0b6wYKwHJgMQQM2LwwECeu4HHoSM4lKaC6an7Y4m7FxPGp+0+A1aKswF8dBFHyU7lOyPNGf5RpcXTIOFM0kcXzr4qv2rVuV+qJdU7ISlprfayqBmjgajy6CpJWjTOoTFpOZ7ThRmgdPkIgodBcry0ozse1B/oeZ8XISESEG0szUe3LJaaBsIkezLD5q37rDsnjXMxHRWB+44UXNJI7Nz5gIEleLmWRWiXjUtRNxJguiWtHD2IC+DtnDPG4q74OS80bIiioEGA/G1P3/HrfNNO7QsniPY/MO6+KTzC1UddEQuOmkeUTjaCySlUtd4Lu8hUSjgZ3YhnCE7o55i2EYNAvrLuR/ELlvEtGDqke8R2Lq/CLgrKRkEkjasnj3e1sXX2LuTlRDY0/3QKZxmaOzmKgc0lebEWONNnGo752QSsNw+nWWNwfrTnT+ADu+DYehmhE/0svVaXDN4N5RpnCHlsW77Jt3WBdfZu4HhGq8LVIEk4hh8yEhlEMKSyI5FBgjAqFZ6YQyWxhOL79XZayshRnY9zPvQ8x9ox6GanuvjB6kR+NnBndJcg0vgbRaFh98b+viK9x9SaolkyrwuSyCCQQu9AsjAwdIYxlTUqRk5nFj5vWOY3mRDwXcKxtCnZGPgEJDAyHtOAo+IlmvgqxCtQf8XL2GH9P0K923SFYaGiCPYF181rlxh3XxuUdIUq0Xt4Q6BVVocKW1wzF8ZFE5pLKlUYontQKe9ZbH8uaje/ChwFPUKawrfHgINCxsmPlSFHxc3Gcgk1TXVccbnNP9J51/flG8QQFenjtt8+87Nm/7NKQzQXVc3AE8oWlgSsPa4KxHd4ayckhnD4m0+qk4brIHhRLshFwD6wNXfocyheMAVuNDNiR1xty3aP6H4dgPCmfq/+ncpPkvbzK+4SSeSa3PsW/9yb71X7V/PdKYoDovefwckBmqShsQgZbNjdlDDiCpDbxV/ehtVJ7HMDSnHY92GwkXP7zjEJxHqczQYCanHUPe+9HpreQTofDGVzB44BMN7ttPQwGMF7cs3u/Y/J91/hulPn0PFE6UOqUdpZ2AQ2wwpbXY1YRoZwYktoS0aphuTqrDDvGIUIIdV7NymQjD5coEB3SfRdpRPHHDUJeZ+3p2/gA953gYCvsQw+cM3aT5Jsl5SbkhJPbA2f6vHZu3vhrzNsRH4Z1iE/5kN+ndfVmDCIyeE3Owy5dDequm+jSPzcVFU0B4asxrC5CGMxjciS3t++j+NnheAtteYGH9YwM+at77mfNm2FeEIhmXLOh+WOcmwX1/LVXvbo+p//eh4vtS6yv/RZLCvkqutEdoLyFL+AiOBCdnm87nomP7QpIbiNdcOIb9nhguS0FBKTSbt34NS0cQ7p2iLsN9mlmvZuYrYN8LLKxfb+48yq/v8Ha6ThCSFGGgLLii+36DOw2OSpbi9Wp7SDtjO7oZYi1FSJAiOcUhdgvtG25ju7dMcBDU5Aeax9Xm0cUNhlRXRTPRsbzje0uwJjQlLJSQks3izc/VihnNZnD/mzsOIfOVyHkTs15D+z6wBvVnn2lHmfsW/a+eF4MvCdXDfQnOG9z/pZLxXUrcenN7SBtjC1MrYAMORd4i7Qg6aiVuxaglZWigYOSoiblitdLDl2cDpLwR9qEt0FjLYuWwxsMJgVA0fvE8XByGPhyEyUZMP4ncN6Pju7B82knwMeqHbL7fnPNmubmMc1S3kepnXLIhuaD7iOCIwbhgelR9AAhEuAYYw+h6kH0qqp/lBmzSnJqpFXUlC4RAoEJDNitLYBYNgcQ3BB3aUBP98Wa25hQLuYfGuncxp3cXCjPSRAh2ylteT8d3IO8D2H/um+k4BDbEmpGpZOaoF4tcFbMq85V0n4Z1G6keA3nBtTf5fMFpw5cky+MjA8i9PiljkNGxa0kJ5FA9NqEbvVQr3dCPyGEj3RNQsnjMiPoxJVmYFZAET0i1VmiJVbFme6VgqKtKY6wBzUj1TGPFOgpC2HxM10l0eCfzP4Iun0CXT6LTO+k6Bf1k1iJXVcrnqZdol0UuF7UsarWIvZameg5U9yO4ZPis1IXdCk+cXFIMVxKIcrWh21GtH98M2ohTPb+xvTa5+5ftTF2iNBnhqlI1q0V1ed4zAiTkiwOkw9MP7hhr7xJZZ62RjEym13QzCzrBSgEVxXh3VptuIoLYxGa3NRAeyRVMffqGvDpbkaUvv8XUydhnGbNNG3YJJ8hcdGXsYrI9FCupDlIfSrbX2QLW2bgSPHL83gTXBVcl1w1PgWalF1YQ5IDiJMCtBWAgfsC/U1QduuFJmRISmSLIS5zJ1BBHZ9PuF0ii3dPiMlw2dh1kxUAnaGyghIbFsLjoziKJ4eHJjHJIjXlNT0U3t/vBGcjBXnpnwMONrr6M3F5fQRrTULRiKJ7OjuBEePIozSFMVShcxs3YZmyzs01Zp7jcBblieG26EjOPrWIWMItHL4ypRDnKqBhXgCfHRwmWpWekFqSXpDKrS2dBhX8ILoNsaTuB8gKeVZEQ2A/yov1vklhqWDs15PLqLVK4DJZhz6ALOjK4ARYaXR1g8TCyaKzKaYPcyag/YTxurBxS5YkDBhjsfAY2xKzqq1xUnuymhtouqtRkePw/kO+nPkx1gGI/2d7b9bX3CZX3DyAISih+ndcphiimRv3DEUcGipPjk2ksISLB1FGgSpxMkSMLM8kS9jXKEo22arPJMnevl1OyDYaUQ4JPUu/4YLuyizFVN/KOpHIQ41Osinho2/73+t/rf6//vf73+t/rf6//vf73+t/rf6//vf73+t/rf6//vf73+t/rf6//vf73+t/rf6//o6MB;" vertex="1" parent="1">
          <mxGeometry x="470" y="250" width="161.9" height="85" as="geometry" />
        </mxCell>
        <mxCell id="AoLgpuZGE-U0Y9UZInxb-30" value="" style="group" vertex="1" connectable="0" parent="1">
          <mxGeometry x="330" y="230" width="76.86" height="120" as="geometry" />
        </mxCell>
        <mxCell id="AoLgpuZGE-U0Y9UZInxb-19" value="" style="shape=image;html=1;verticalAlign=top;verticalLabelPosition=bottom;labelBackgroundColor=#ffffff;imageAspect=0;aspect=fixed;image=https://cdn4.iconfinder.com/data/icons/logos-brands-5/24/nginx-128.png;strokeColor=#FF9933;fillColor=none;" vertex="1" parent="AoLgpuZGE-U0Y9UZInxb-30">
          <mxGeometry width="76.86" height="76.86" as="geometry" />
        </mxCell>
        <mxCell id="AoLgpuZGE-U0Y9UZInxb-24" value="nginx" style="text;html=1;resizable=0;autosize=1;align=center;verticalAlign=middle;points=[];fillColor=none;strokeColor=none;rounded=0;" vertex="1" parent="AoLgpuZGE-U0Y9UZInxb-30">
          <mxGeometry x="7.058571428571428" y="88.62745098039215" width="40" height="20" as="geometry" />
        </mxCell>
      </root>
    </mxGraphModel>
  </diagram>
</mxfile>
